<svg xmlns="http://www.w3.org/2000/svg" viewBox="0 0 113.35 70.68"><defs><style>.cls-1,.cls-3,.cls-4{fill:#5468ff;}.cls-2{fill:#21243d;}.cls-3,.cls-4{stroke:#21243d;stroke-linejoin:round;}.cls-3{stroke-width:4.6px;}.cls-4{stroke-linecap:round;stroke-width:4px;}</style></defs><g id="Layer_2" data-name="Layer 2"><g id="Layer_1-2" data-name="Layer 1"><path class="cls-1" d="M20.17,2.3h73a9.64,9.64,0,0,1,9.64,9.64v45.3a9.64,9.64,0,0,1-9.64,9.64h-73a9.65,9.65,0,0,1-9.65-9.65V11.94A9.64,9.64,0,0,1,20.17,2.3Z"/><path class="cls-2" d="M93.19,4.6a7.34,7.34,0,0,1,7.34,7.34v45.3a7.35,7.35,0,0,1-7.34,7.35h-73a7.35,7.35,0,0,1-7.34-7.35V11.94A7.34,7.34,0,0,1,20.17,4.6h73m0-4.6h-73A12,12,0,0,0,8.23,11.94v45.3A12,12,0,0,0,20.17,69.19h73a12,12,0,0,0,11.94-11.95V11.94A12,12,0,0,0,93.19,0Z"/><path class="cls-1" d="M56.19,4.6h-36a7.34,7.34,0,0,0-7.34,7.34v45.3a7.35,7.35,0,0,0,7.34,7.35h36Z"/><rect class="cls-3" x="18.58" y="9.97" width="76.2" height="49.25" rx="2.7"/><path class="cls-1" d="M12.37,68.38A10.11,10.11,0,0,1,2.31,59.25a2.35,2.35,0,0,1,.58-1.78,2.33,2.33,0,0,1,1.71-.76H108.75a2.33,2.33,0,0,1,1.71.76,2.27,2.27,0,0,1,.58,1.78A10.1,10.1,0,0,1,101,68.38Z"/><path class="cls-2" d="M108.75,59A7.82,7.82,0,0,1,101,66.08H12.37A7.83,7.83,0,0,1,4.6,59H108.75m0-4.6H4.6A4.62,4.62,0,0,0,0,59.48a12.41,12.41,0,0,0,12.35,11.2H101a12.39,12.39,0,0,0,12.35-11.2,4.6,4.6,0,0,0-4.58-5.07Z"/><path class="cls-1" d="M56.23,59H4.6a7.83,7.83,0,0,0,7.77,7.07H56.23Z"/><line class="cls-4" x1="51.73" y1="62.25" x2="61.62" y2="62.25"/></g></g></svg>