<svg id="OBJECTS" xmlns="http://www.w3.org/2000/svg" viewBox="0 0 444.94 353.22"><defs><style>.cls-1{fill:#8c93e2;}.cls-1,.cls-11,.cls-14,.cls-15,.cls-17,.cls-19,.cls-2,.cls-20,.cls-21,.cls-22,.cls-23,.cls-24,.cls-25,.cls-26,.cls-27,.cls-28,.cls-29,.cls-3,.cls-30,.cls-31,.cls-32,.cls-33,.cls-34,.cls-35,.cls-36,.cls-37,.cls-38,.cls-4,.cls-40,.cls-6,.cls-7,.cls-8,.cls-9{fill-rule:evenodd;}.cls-2{fill:#ebf2f8;}.cls-3{fill:#4bb89f;}.cls-4{fill:#7fc8b8;}.cls-5,.cls-6{fill:#a36e4e;}.cls-7{fill:#794c34;}.cls-10,.cls-8{fill:#dee7f4;}.cls-13,.cls-9{fill:#fff;}.cls-11{fill:#7385a1;}.cls-12,.cls-25{fill:#8397b5;}.cls-14{fill:#252626;}.cls-15,.cls-16{fill:#c5c9e0;}.cls-17,.cls-18{fill:#5468ff;}.cls-19{fill:#15ff95;}.cls-20{fill:#f2da00;}.cls-21{fill:#f4005e;}.cls-22{fill:#3944a0;}.cls-23{fill:#565db6;}.cls-24{fill:#a6b0f9;}.cls-26{fill:#f4ad85;}.cls-27{fill:#f19879;}.cls-28{fill:#bec7d4;}.cls-29{fill:#e8685b;}.cls-30{fill:#f6bb98;}.cls-32{fill:#0c0e0e;}.cls-33{fill:#d7e0ec;}.cls-34{fill:#ef8871;}.cls-35{fill:#d64341;}.cls-36{fill:#f8caae;}.cls-37{fill:#1c1d1d;}.cls-38{fill:#be865e;}.cls-39{fill:#915e40;}.cls-40{fill:#d49d80;}</style></defs><path class="cls-1" d="M400.84,423.82a71.73,71.73,0,0,0,71.52-71.52h0a71.73,71.73,0,0,0-71.52-71.52h0a30.33,30.33,0,0,1-30.24-30.24h0a30.33,30.33,0,0,1,30.24-30.24h3.6a31.53,31.53,0,0,0,31.44-31.44h0a31.54,31.54,0,0,0-31.44-31.44h-11a12.27,12.27,0,0,1-12.24-12.23h0a12.28,12.28,0,0,1,12.24-12.25h8.11A8.47,8.47,0,0,0,410,124.5h0a8.47,8.47,0,0,0-8.45-8.45H347a13.32,13.32,0,0,1-13.28-13.27h0A13.32,13.32,0,0,1,347,89.5h16.3a8.47,8.47,0,0,0,8.45-8.45h0a8.47,8.47,0,0,0-8.45-8.44H124.46a11.05,11.05,0,0,0-11,11h0a11.05,11.05,0,0,0,11,11h16.73A17.38,17.38,0,0,1,158.51,112h0a17.37,17.37,0,0,1-17.32,17.32H76.5a11.06,11.06,0,0,0-11,11h0a11.06,11.06,0,0,0,11,11H87.08a16,16,0,0,1,16,16h0a16,16,0,0,1-16,16H72.67a41.14,41.14,0,0,0-41,41h0a41.14,41.14,0,0,0,41,41h4.7a39.58,39.58,0,0,1,39.46,39.46h0a39.58,39.58,0,0,1-39.46,39.46H67.2A39.9,39.9,0,0,0,27.42,384h0A39.9,39.9,0,0,0,67.2,423.82ZM96.26,94.65a11,11,0,1,1,11-11,11,11,0,0,1-11,11Zm329,38.3a8.45,8.45,0,1,1,8.44-8.45A8.45,8.45,0,0,1,425.22,133Z" transform="translate(-27.42 -72.61)"/><path class="cls-2" d="M263.83,135.08ZM261,124.38a5.38,5.38,0,1,0,1.59,3.82,5.38,5.38,0,0,0-1.59-3.82ZM259.85,119a9.72,9.72,0,0,1,2.12.9,9.85,9.85,0,0,1,1.86,1.4.32.32,0,0,0,.4.05l2.51-1.45h0a.62.62,0,0,1,.46-.06.61.61,0,0,1,.38.29v0l1.77,3.06a.65.65,0,0,1,.06.47.59.59,0,0,1-.29.38h0l-2.49,1.44a.35.35,0,0,0-.16.37h0a8.49,8.49,0,0,1,.21,1.14,9.73,9.73,0,0,1,0,2.33,8.49,8.49,0,0,1-.21,1.14.34.34,0,0,0,.18.38l2.49,1.43h0a.63.63,0,0,1,.23.85l-1.78,3.08h0a.61.61,0,0,1-.38.29.6.6,0,0,1-.47-.06h0L264.23,135a.35.35,0,0,0-.4.05,9.44,9.44,0,0,1-1.86,1.4,9.83,9.83,0,0,1-2.13.91.33.33,0,0,0-.24.32v2.89a.63.63,0,0,1-.18.44.65.65,0,0,1-.44.18h-3.56A.65.65,0,0,1,255,141a.63.63,0,0,1-.18-.44v-2.89a.34.34,0,0,0-.26-.33,9.57,9.57,0,0,1-4-2.3.33.33,0,0,0-.41,0l-2.5,1.44a.6.6,0,0,1-.47.06.61.61,0,0,1-.38-.29h0L245,133.17h0a.63.63,0,0,1,.23-.85l2.51-1.45a.31.31,0,0,0,.15-.36h0a8.48,8.48,0,0,1-.2-1.14,9.73,9.73,0,0,1,0-2.33,8.48,8.48,0,0,1,.2-1.14.32.32,0,0,0-.17-.38l-2.49-1.44a.59.59,0,0,1-.29-.38.65.65,0,0,1,.06-.47v0l1.77-3.06h0a.61.61,0,0,1,.38-.29.65.65,0,0,1,.47.06h0l2.51,1.45a.33.33,0,0,0,.4-.05,9.44,9.44,0,0,1,1.86-1.4,9.15,9.15,0,0,1,2.13-.9.34.34,0,0,0,.24-.32v-2.9a.61.61,0,0,1,.62-.62H259a.61.61,0,0,1,.62.62v2.9A.32.32,0,0,0,259.85,119Z" transform="translate(-27.42 -72.61)"/><path class="cls-2" d="M219.29,127.62a11.94,11.94,0,0,0-3.81-2.54,11.7,11.7,0,0,0-12.74,19.09,11.48,11.48,0,0,0,3.8,2.54,11.68,11.68,0,0,0,15.28-6.34,11.7,11.7,0,0,0,0-9,11.82,11.82,0,0,0-2.53-3.8Zm-4.22-1.54a10.6,10.6,0,0,1,3.45,17.32,10.62,10.62,0,1,1-15-15,10.65,10.65,0,0,1,11.57-2.31Zm1.3-8.61a20.37,20.37,0,0,1,2.15.77,18.44,18.44,0,0,1,4,2.33,18.65,18.65,0,0,1,1.79,1.52,1.2,1.2,0,0,0,.7.33,1.19,1.19,0,0,0,.76-.15c1.72-1,3.53-2,5.21-3a.73.73,0,0,1,.25-.08.93.93,0,0,1,.29,0,.91.91,0,0,1,.26.13.67.67,0,0,1,.19.22c1.25,1.89,2.51,4.34,3.67,6.35a.72.72,0,0,1,.09.27.61.61,0,0,1,0,.3.71.71,0,0,1-.13.26.64.64,0,0,1-.21.19c-1.55,1-3.54,2-5.18,3a1.26,1.26,0,0,0-.52.58,1.11,1.11,0,0,0-.07.26l-.11,0,.12.48c.09.38.18.76.25,1.14s.12.75.17,1.16.08.78.11,1.16,0,.77,0,1.18,0,.8,0,1.17-.06.77-.11,1.17-.11.78-.17,1.15-.16.76-.25,1.14a1.19,1.19,0,0,0,.08.81,1.21,1.21,0,0,0,.55.57l4.58,2.65h0l.55.31a.77.77,0,0,1,.21.19.68.68,0,0,1,.13.27.57.57,0,0,1,0,.29.66.66,0,0,1-.09.27l-3.39,5.88h0l-.28.47a.67.67,0,0,1-.19.22.91.91,0,0,1-.26.13.76.76,0,0,1-.3,0,.62.62,0,0,1-.26-.09c-1.65-1-3.5-2-5.19-3a1.22,1.22,0,0,0-1.46.17h0a20.31,20.31,0,0,1-1.79,1.53,19.93,19.93,0,0,1-1.95,1.29,20.17,20.17,0,0,1-2.08,1,19.73,19.73,0,0,1-2.2.78,1.2,1.2,0,0,0-.64.44,1.18,1.18,0,0,0-.25.74v6a.87.87,0,0,1,0,.28.81.81,0,0,1-.17.24.67.67,0,0,1-.24.16.64.64,0,0,1-.28.06h-7.34a.67.67,0,0,1-.28-.06.78.78,0,0,1-.24-.16.63.63,0,0,1-.16-.24.67.67,0,0,1-.06-.28v-6a1.24,1.24,0,0,0-.26-.75,1.19,1.19,0,0,0-.68-.44,18.5,18.5,0,0,1-2.16-.77,19,19,0,0,1-2.07-1,19.93,19.93,0,0,1-2-1.29,20.17,20.17,0,0,1-1.78-1.53,1.19,1.19,0,0,0-.74-.33,1.24,1.24,0,0,0-.79.19l-5.12,3a.66.66,0,0,1-.27.09.76.76,0,0,1-.3,0,.91.91,0,0,1-.26-.13.82.82,0,0,1-.19-.22l-3.67-6.35a.66.66,0,0,1-.09-.27.93.93,0,0,1,0-.29.84.84,0,0,1,.13-.27,1,1,0,0,1,.21-.19l5.18-3a1.21,1.21,0,0,0,.52-.58.66.66,0,0,0,.06-.2l.14,0-.14-.55q-.13-.57-.24-1.14c-.07-.37-.13-.75-.18-1.15s-.08-.78-.1-1.17,0-.76,0-1.17,0-.81,0-1.18,0-.77.1-1.16.11-.79.18-1.16.15-.76.24-1.14a1.25,1.25,0,0,0-.07-.81,1.28,1.28,0,0,0-.56-.57l-5.13-3a.76.76,0,0,1-.21-.19.71.71,0,0,1-.13-.26,1,1,0,0,1,0-.3.72.72,0,0,1,.09-.27c1.25-1.86,2.51-4.35,3.67-6.35a.82.82,0,0,1,.19-.22.91.91,0,0,1,.26-.13,1,1,0,0,1,.3,0,.72.72,0,0,1,.27.09l5.18,3a1.21,1.21,0,0,0,.78.15,1.15,1.15,0,0,0,.7-.35,19.72,19.72,0,0,1,1.78-1.51,20.41,20.41,0,0,1,1.94-1.29,19.15,19.15,0,0,1,2.08-1,17.91,17.91,0,0,1,2.2-.78,1.28,1.28,0,0,0,.64-.44,1.22,1.22,0,0,0,.25-.74v-6a.82.82,0,0,1,.05-.28.87.87,0,0,1,.41-.41.87.87,0,0,1,.28,0h7.34a.82.82,0,0,1,.28,0,.84.84,0,0,1,.24.16.75.75,0,0,1,.22.53v6a1.22,1.22,0,0,0,.27.76,1.2,1.2,0,0,0,.68.43Zm2.58-.22a20.29,20.29,0,0,1,2.19,1.09,21.55,21.55,0,0,1,2.06,1.36,23.85,23.85,0,0,1,1.88,1.61.12.12,0,0,0,.08,0,.15.15,0,0,0,.09,0l5.23-3a1.69,1.69,0,0,1,.65-.2,1.78,1.78,0,0,1,.69,0,1.78,1.78,0,0,1,1.11.85c1.26,2,2.46,4.26,3.67,6.35a1.81,1.81,0,0,1,.22.68,1.88,1.88,0,0,1,0,.71,1.83,1.83,0,0,1-.32.64,2,2,0,0,1-.53.47c-1.67,1-3.48,2-5.18,3a.12.12,0,0,0-.06.06.17.17,0,0,0,0,.1l.12.48h0c.06.24.1.47.15.72.07.41.14.82.19,1.22s.08.81.11,1.23,0,.83,0,1.24,0,.81,0,1.23-.07.84-.11,1.23-.12.81-.19,1.23-.17.81-.26,1.2a.16.16,0,0,0,.07.16c1.91,1,3.84,2.21,5.72,3.3l-.07.08.06.08a1.75,1.75,0,0,1,.32.64,1.87,1.87,0,0,1,0,.71,1.82,1.82,0,0,1-.22.67l-3.95,6.83-.07,0-.12.1a1.73,1.73,0,0,1-.64.31,1.7,1.7,0,0,1-.71.05,2,2,0,0,1-.66-.21c-1.72-.92-3.5-2-5.2-3a.14.14,0,0,0-.09,0,.12.12,0,0,0-.09,0,21.92,21.92,0,0,1-1.87,1.6,21.55,21.55,0,0,1-2.06,1.36,19.77,19.77,0,0,1-2.21,1.1,20.62,20.62,0,0,1-2.32.83.08.08,0,0,0-.07.05.09.09,0,0,0,0,.09v6a1.8,1.8,0,0,1-.54,1.28,1.81,1.81,0,0,1-.59.4,1.86,1.86,0,0,1-.7.14h-7.34a1.85,1.85,0,0,1-1.29-.54,1.74,1.74,0,0,1-.39-.59,1.77,1.77,0,0,1-.14-.69v-6a.16.16,0,0,0,0-.09l-.08,0h0a21.59,21.59,0,0,1-2.3-.82,18.67,18.67,0,0,1-2.19-1.1,19.84,19.84,0,0,1-3.94-3l-.09,0-.09,0-5.18,3a1.82,1.82,0,0,1-.67.22,1.74,1.74,0,0,1-.72-.05,1.89,1.89,0,0,1-.64-.31,1.93,1.93,0,0,1-.46-.52c-1.36-2.19-2.64-4.58-3.94-6.83l.07,0,0-.17a1.85,1.85,0,0,1,.05-.71,1.73,1.73,0,0,1,.31-.64,1.71,1.71,0,0,1,.53-.47l5.18-3a.13.13,0,0,0,.06-.07.1.1,0,0,0,0-.09l-.13-.55h0l-.12-.65c-.08-.42-.14-.83-.19-1.23s-.09-.8-.11-1.23,0-.83,0-1.23,0-.82,0-1.24.06-.83.11-1.23.11-.81.19-1.23.16-.81.25-1.19a.11.11,0,0,0,0-.1.13.13,0,0,0-.06-.07l-5.18-3a2,2,0,0,1-.53-.47,1.88,1.88,0,0,1-.36-1.35,1.78,1.78,0,0,1,.22-.66c1.23-2.29,2.64-4.59,4-6.85l.07,0,.12-.11a2.1,2.1,0,0,1,.64-.31,1.88,1.88,0,0,1,.71,0,1.67,1.67,0,0,1,.68.23l.38.22h0l4.8,2.77a.18.18,0,0,0,.1,0,.12.12,0,0,0,.08,0h0a20.61,20.61,0,0,1,1.88-1.6,18.67,18.67,0,0,1,2-1.36,19.63,19.63,0,0,1,2.2-1.1,20.57,20.57,0,0,1,2.32-.82l.08,0a.16.16,0,0,0,0-.09v-6a1.82,1.82,0,0,1,.14-.7,2,2,0,0,1,.39-.59,1.91,1.91,0,0,1,.6-.4,1.77,1.77,0,0,1,.69-.14h7.34a1.86,1.86,0,0,1,.7.14,2,2,0,0,1,.59.4,1.83,1.83,0,0,1,.54,1.29v6a.16.16,0,0,0,0,.09.12.12,0,0,0,.08,0h0A19.11,19.11,0,0,1,219,117.25Z" transform="translate(-27.42 -72.61)"/><path class="cls-3" d="M364.83,384.41l2.77,3.47h12.6l2.78-3.47C392.94,357.54,354.86,357.54,364.83,384.41Z" transform="translate(-27.42 -72.61)"/><path class="cls-4" d="M368.42,384.41l1.67,3.47h7.62l1.67-3.47C385.4,357.54,362.4,357.54,368.42,384.41Z" transform="translate(-27.42 -72.61)"/><rect class="cls-5" x="334.31" y="309.56" width="24.34" height="8.9" rx="1.36"/><polygon class="cls-6" points="353.69 314.59 339.27 314.59 335.51 318.46 338.58 331.96 346.48 331.96 354.38 331.96 357.46 318.46 353.69 314.59"/><polygon class="cls-7" points="335.51 318.46 336.14 321.12 356.83 321.12 357.46 318.46 335.51 318.46"/><path class="cls-3" d="M380.82,368.16,380,370l2.58,4.9,1.92.37C397,373.61,389.24,358.8,380.82,368.16Z" transform="translate(-27.42 -72.61)"/><path class="cls-4" d="M386.08,372.9c6.44-3,3.75-8.15-2.32-4.6C378.63,371.3,380.73,375.36,386.08,372.9Z" transform="translate(-27.42 -72.61)"/><path class="cls-3" d="M368,367.77l.25,1.45-2.77,3.12-1.47-.08C355.13,368.82,363.51,359.38,368,367.77Z" transform="translate(-27.42 -72.61)"/><path class="cls-4" d="M363.26,370.28c-4.18-3.34-1.27-6.64,2.53-2.94C369,370.46,366.73,373.05,363.26,370.28Z" transform="translate(-27.42 -72.61)"/><path class="cls-8" d="M382,182.31a13.16,13.16,0,0,0-12.32,8.54,6.58,6.58,0,0,0-1.48-.16,6.81,6.81,0,0,0-6.33,4.3,7,7,0,1,0-2.21,13.63h49.11a8.49,8.49,0,1,0-2.69-16.54,8.25,8.25,0,0,0-12.82-3.42A13.13,13.13,0,0,0,382,182.31Z" transform="translate(-27.42 -72.61)"/><path class="cls-9" d="M364,174.72a17,17,0,0,1,0,33.9H329.51A10.94,10.94,0,1,1,333,187.31a10.65,10.65,0,0,1,16.52-4.41A17,17,0,0,1,364,174.72Z" transform="translate(-27.42 -72.61)"/><rect class="cls-10" x="302.95" y="140.16" width="4.47" height="4.47" rx="0.89"/><rect class="cls-10" x="312.11" y="140.16" width="4.47" height="4.47" rx="0.89"/><rect class="cls-10" x="321.27" y="140.16" width="4.47" height="4.47" rx="0.89"/><rect class="cls-10" x="330.44" y="140.16" width="4.47" height="4.47" rx="0.89"/><path class="cls-9" d="M371.75,314.52h-1.29a.79.79,0,0,0-.79.79h0a.79.79,0,0,0,.79.79h1.29a.79.79,0,0,0,.79-.79h0A.8.8,0,0,0,371.75,314.52Z" transform="translate(-27.42 -72.61)"/><path class="cls-9" d="M391.18,326.77h8.33a.79.79,0,0,1,.79.79h0a.8.8,0,0,1-.79.79h-8.33a.8.8,0,0,1-.79-.79h0A.79.79,0,0,1,391.18,326.77Z" transform="translate(-27.42 -72.61)"/><path class="cls-9" d="M383.49,332.43h-6.94a.8.8,0,0,0-.79.79h0a.79.79,0,0,0,.79.79h6.94a.79.79,0,0,0,.79-.79h0A.8.8,0,0,0,383.49,332.43Z" transform="translate(-27.42 -72.61)"/><path class="cls-9" d="M378.4,343.1h-1.85a.8.8,0,0,0-.79.79h0a.79.79,0,0,0,.79.79h1.85a.79.79,0,0,0,.79-.79h0A.8.8,0,0,0,378.4,343.1Z" transform="translate(-27.42 -72.61)"/><path class="cls-9" d="M438.8,354.43H418.16a.8.8,0,0,0-.79.79h0a.8.8,0,0,0,.79.8H438.8a.79.79,0,0,0,.79-.8h0A.79.79,0,0,0,438.8,354.43Z" transform="translate(-27.42 -72.61)"/><path class="cls-9" d="M425.27,360.1h8.32a.79.79,0,0,1,.8.79h0a.8.8,0,0,1-.8.79h-8.32a.79.79,0,0,1-.79-.79h0A.79.79,0,0,1,425.27,360.1Z" transform="translate(-27.42 -72.61)"/><path class="cls-9" d="M417.57,365.77h-6.93a.79.79,0,0,0-.79.79h0a.79.79,0,0,0,.79.79h6.93a.8.8,0,0,0,.8-.79h0A.79.79,0,0,0,417.57,365.77Z" transform="translate(-27.42 -72.61)"/><path class="cls-9" d="M412.48,376.43h-1.84a.79.79,0,0,0-.79.8h0a.79.79,0,0,0,.79.79h1.84a.79.79,0,0,0,.79-.79h0A.79.79,0,0,0,412.48,376.43Z" transform="translate(-27.42 -72.61)"/><path class="cls-9" d="M450.82,387.76H430.18a.79.79,0,0,0-.79.8h0a.79.79,0,0,0,.79.79h20.64a.79.79,0,0,0,.79-.79h0A.79.79,0,0,0,450.82,387.76Z" transform="translate(-27.42 -72.61)"/><path class="cls-11" d="M357.18,314.52H346.43a.8.8,0,0,0-.8.79h0a.79.79,0,0,0,.8.79h10.75a.79.79,0,0,0,.79-.79h0A.8.8,0,0,0,357.18,314.52Z" transform="translate(-27.42 -72.61)"/><path class="cls-11" d="M403.22,319.85H381.93a.8.8,0,0,0-.79.8h0a.8.8,0,0,0,.79.79h21.29a.79.79,0,0,0,.79-.79h0A.79.79,0,0,0,403.22,319.85Z" transform="translate(-27.42 -72.61)"/><path class="cls-11" d="M351.4,319.85h24a.79.79,0,0,1,.79.8h0a.79.79,0,0,1-.79.79h-24a.79.79,0,0,1-.79-.79h0A.79.79,0,0,1,351.4,319.85Z" transform="translate(-27.42 -72.61)"/><path class="cls-11" d="M366.38,314.52H346.09a.8.8,0,0,0-.8.79h0a.79.79,0,0,0,.8.79h20.29a.79.79,0,0,0,.79-.79h0A.8.8,0,0,0,366.38,314.52Z" transform="translate(-27.42 -72.61)"/><path class="cls-11" d="M433.68,326.77H403a.79.79,0,0,0-.79.79h0a.79.79,0,0,0,.79.79h30.64a.79.79,0,0,0,.79-.79h0A.79.79,0,0,0,433.68,326.77Z" transform="translate(-27.42 -72.61)"/><path class="cls-11" d="M388,326.77H357.38a.79.79,0,0,0-.79.79h0a.8.8,0,0,0,.79.79H388a.8.8,0,0,0,.79-.79h0A.79.79,0,0,0,388,326.77Z" transform="translate(-27.42 -72.61)"/><path class="cls-11" d="M372.19,332.43H361.27a.8.8,0,0,0-.79.79h0a.79.79,0,0,0,.79.79h10.92a.79.79,0,0,0,.79-.79h0A.79.79,0,0,0,372.19,332.43Z" transform="translate(-27.42 -72.61)"/><path class="cls-11" d="M435.9,332.43H387.39a.8.8,0,0,0-.8.79h0a.79.79,0,0,0,.8.79H435.9a.79.79,0,0,0,.79-.79h0A.79.79,0,0,0,435.9,332.43Z" transform="translate(-27.42 -72.61)"/><path class="cls-11" d="M409.79,337.83H361.27a.8.8,0,0,0-.79.79h0a.79.79,0,0,0,.79.79h48.52a.79.79,0,0,0,.79-.79h0A.8.8,0,0,0,409.79,337.83Z" transform="translate(-27.42 -72.61)"/><path class="cls-11" d="M372.19,343.1H361.27a.8.8,0,0,0-.79.79h0a.79.79,0,0,0,.79.79h10.92a.79.79,0,0,0,.79-.79h0A.79.79,0,0,0,372.19,343.1Z" transform="translate(-27.42 -72.61)"/><path class="cls-11" d="M416.73,343.1H382.57a.8.8,0,0,0-.79.79h0a.79.79,0,0,0,.79.79h34.16a.79.79,0,0,0,.8-.79h0A.8.8,0,0,0,416.73,343.1Z" transform="translate(-27.42 -72.61)"/><path class="cls-11" d="M424.57,348.77h-53.7a.79.79,0,0,0-.79.79h0a.8.8,0,0,0,.79.79h53.7a.79.79,0,0,0,.79-.79h0A.79.79,0,0,0,424.57,348.77Z" transform="translate(-27.42 -72.61)"/><path class="cls-11" d="M413.06,354.43H378.15a.8.8,0,0,0-.79.79h0a.8.8,0,0,0,.79.8h34.91a.8.8,0,0,0,.79-.8h0A.8.8,0,0,0,413.06,354.43Z" transform="translate(-27.42 -72.61)"/><path class="cls-11" d="M467.77,360.1H437.12a.79.79,0,0,0-.79.79h0a.8.8,0,0,0,.79.79h30.65a.8.8,0,0,0,.79-.79h0A.79.79,0,0,0,467.77,360.1Z" transform="translate(-27.42 -72.61)"/><path class="cls-11" d="M422.11,360.1H391.47a.79.79,0,0,0-.79.79h0a.79.79,0,0,0,.79.79h30.64a.79.79,0,0,0,.79-.79h0A.79.79,0,0,0,422.11,360.1Z" transform="translate(-27.42 -72.61)"/><path class="cls-11" d="M406.28,365.77H395.36a.79.79,0,0,0-.79.79h0a.79.79,0,0,0,.79.79h10.92a.8.8,0,0,0,.79-.79h0A.79.79,0,0,0,406.28,365.77Z" transform="translate(-27.42 -72.61)"/><path class="cls-11" d="M470,365.77H421.47a.79.79,0,0,0-.79.79h0a.8.8,0,0,0,.79.79H470a.8.8,0,0,0,.79-.79h0A.79.79,0,0,0,470,365.77Z" transform="translate(-27.42 -72.61)"/><path class="cls-11" d="M443.88,371.17H395.36a.79.79,0,0,0-.79.79h0a.79.79,0,0,0,.79.79h48.52a.8.8,0,0,0,.79-.79h0A.79.79,0,0,0,443.88,371.17Z" transform="translate(-27.42 -72.61)"/><path class="cls-11" d="M406.28,376.43H395.36a.79.79,0,0,0-.79.8h0a.79.79,0,0,0,.79.79h10.92a.8.8,0,0,0,.79-.79h0A.8.8,0,0,0,406.28,376.43Z" transform="translate(-27.42 -72.61)"/><path class="cls-11" d="M450.82,376.43H416.66a.79.79,0,0,0-.79.8h0a.79.79,0,0,0,.79.79h34.16a.79.79,0,0,0,.79-.79h0A.79.79,0,0,0,450.82,376.43Z" transform="translate(-27.42 -72.61)"/><path class="cls-11" d="M443.88,382.1H390.17a.79.79,0,0,0-.79.79h0a.8.8,0,0,0,.79.79h53.71a.8.8,0,0,0,.79-.79h0A.79.79,0,0,0,443.88,382.1Z" transform="translate(-27.42 -72.61)"/><path class="cls-11" d="M425.08,387.76H390.17a.8.8,0,0,0-.79.8h0a.8.8,0,0,0,.79.79h34.91a.8.8,0,0,0,.79-.79h0A.8.8,0,0,0,425.08,387.76Z" transform="translate(-27.42 -72.61)"/><path class="cls-9" d="M78.37,240l-8-3.51v-1.15l8-4v1.93l-5.5,2.55,5.5,2.25V240Zm2.92-2.27v-.59a2.64,2.64,0,0,1,.33-1.34,4.36,4.36,0,0,1,1.2-1.21,5.47,5.47,0,0,0,1.12-1,1.46,1.46,0,0,0,.26-.84.93.93,0,0,0-.38-.8,1.88,1.88,0,0,0-1.08-.27,6.18,6.18,0,0,0-2.74.78l-.88-1.75a7.63,7.63,0,0,1,3.8-1,4,4,0,0,1,2.63.79,2.6,2.6,0,0,1,1,2.12,2.76,2.76,0,0,1-.4,1.52,5.76,5.76,0,0,1-1.52,1.45,5,5,0,0,0-1,.86,1.41,1.41,0,0,0-.2.78v.48ZM81,240.46a1.35,1.35,0,0,1,.36-1,1.48,1.48,0,0,1,1-.34,1.43,1.43,0,0,1,1,.35,1.36,1.36,0,0,1,.36,1,1.33,1.33,0,0,1-.37,1,1.35,1.35,0,0,1-1,.37,1.45,1.45,0,0,1-1-.36,1.38,1.38,0,0,1-.37-1Zm9.85-5.06h.82a2.74,2.74,0,0,0,1.72-.46,1.58,1.58,0,0,0,.57-1.32,1.62,1.62,0,0,0-.48-1.29,2.19,2.19,0,0,0-1.49-.42H90.88v3.49Zm5.62-1.87a3.59,3.59,0,0,1-1.18,2.9,5.06,5.06,0,0,1-3.37,1H90.88v4.17H88.39V229.87h3.75a5,5,0,0,1,3.26.92,3.38,3.38,0,0,1,1.1,2.74Zm11.84,8.08h-2.48v-5.06h-4.65v5.06H98.72V229.87h2.49v4.61h4.65v-4.61h2.48v11.74Zm5.45-6.21h.82a2.74,2.74,0,0,0,1.72-.46,1.58,1.58,0,0,0,.57-1.32,1.62,1.62,0,0,0-.48-1.29,2.19,2.19,0,0,0-1.49-.42h-1.14v3.49Zm5.62-1.87a3.59,3.59,0,0,1-1.18,2.9,5.06,5.06,0,0,1-3.37,1h-1.07v4.17H111.3V229.87h3.75a5,5,0,0,1,3.25.92,3.35,3.35,0,0,1,1.11,2.74Zm3,4.18v-.59a2.64,2.64,0,0,1,.33-1.34,4.36,4.36,0,0,1,1.2-1.21,5,5,0,0,0,1.12-1,1.4,1.4,0,0,0,.27-.84.91.91,0,0,0-.39-.8,1.85,1.85,0,0,0-1.08-.27,6.22,6.22,0,0,0-2.74.78l-.88-1.75a7.66,7.66,0,0,1,3.8-1,4,4,0,0,1,2.63.79,2.6,2.6,0,0,1,1,2.12,2.76,2.76,0,0,1-.4,1.52,5.6,5.6,0,0,1-1.52,1.45,5,5,0,0,0-1,.86,1.41,1.41,0,0,0-.2.78v.48Zm-.26,2.75a1.32,1.32,0,0,1,.37-1,1.44,1.44,0,0,1,1-.34,1.42,1.42,0,0,1,1,.35,1.36,1.36,0,0,1,.36,1,1.33,1.33,0,0,1-.37,1,1.35,1.35,0,0,1-1,.37,1.45,1.45,0,0,1-1-.36,1.38,1.38,0,0,1-.37-1Zm6.6-2.4,5.49-2.25-5.49-2.55v-1.93l8,4v1.15l-8,3.51Z" transform="translate(-27.42 -72.61)"/><rect class="cls-12" x="39.65" y="108.46" width="76.68" height="42.55" rx="3.6"/><rect class="cls-13" x="37.78" y="106.54" width="76.68" height="42.55" rx="3.6"/><path class="cls-14" d="M68.8,179.15h69.47a3.61,3.61,0,0,1,3.61,3.6v5a1,1,0,0,1-1,1H66.21a1,1,0,0,1-1-1v-5A3.61,3.61,0,0,1,68.8,179.15Z" transform="translate(-27.42 -72.61)"/><path class="cls-15" d="M71,192.75H90.5a.76.76,0,0,1,.75.75h0a.76.76,0,0,1-.75.75H71a.75.75,0,0,1-.75-.75h0A.75.75,0,0,1,71,192.75Z" transform="translate(-27.42 -72.61)"/><rect class="cls-16" x="53.64" y="123.44" width="10.19" height="1.5" rx="0.75"/><rect class="cls-16" x="49.84" y="123.44" width="2.19" height="1.5" rx="0.75"/><rect class="cls-16" x="42.86" y="123.44" width="5.86" height="1.5" rx="0.75"/><path class="cls-15" d="M71,200H90.5a.76.76,0,0,1,.75.75h0a.76.76,0,0,1-.75.75H71a.75.75,0,0,1-.75-.75h0A.75.75,0,0,1,71,200Z" transform="translate(-27.42 -72.61)"/><path class="cls-15" d="M71,203.27h8.7a.75.75,0,0,1,.74.75h0a.75.75,0,0,1-.74.75H71a.75.75,0,0,1-.75-.75h0A.75.75,0,0,1,71,203.27Z" transform="translate(-27.42 -72.61)"/><path class="cls-15" d="M83.52,203.27h-.69a.76.76,0,0,0-.75.75h0a.76.76,0,0,0,.75.75h.69a.76.76,0,0,0,.75-.75h0A.76.76,0,0,0,83.52,203.27Z" transform="translate(-27.42 -72.61)"/><path class="cls-15" d="M90.5,203.27H86.14a.75.75,0,0,0-.74.75h0a.75.75,0,0,0,.74.75H90.5a.76.76,0,0,0,.75-.75h0A.76.76,0,0,0,90.5,203.27Z" transform="translate(-27.42 -72.61)"/><path class="cls-15" d="M71,207.19H90.5a.76.76,0,0,1,.75.75h0a.76.76,0,0,1-.75.75H71a.75.75,0,0,1-.75-.75h0A.75.75,0,0,1,71,207.19Z" transform="translate(-27.42 -72.61)"/><rect class="cls-16" x="53.64" y="137.88" width="10.19" height="1.5" rx="0.75"/><rect class="cls-16" x="49.84" y="137.88" width="2.19" height="1.5" rx="0.75"/><rect class="cls-16" x="42.86" y="137.88" width="5.86" height="1.5" rx="0.75"/><path class="cls-15" d="M71,214.41H90.5a.75.75,0,0,1,.75.75h0a.75.75,0,0,1-.75.74H71a.74.74,0,0,1-.75-.74h0A.74.74,0,0,1,71,214.41Z" transform="translate(-27.42 -72.61)"/><path class="cls-17" d="M103,192.75h33a.76.76,0,0,1,.75.75h0a.76.76,0,0,1-.75.75H103a.75.75,0,0,1-.74-.75h0A.75.75,0,0,1,103,192.75Z" transform="translate(-27.42 -72.61)"/><rect class="cls-18" x="92.5" y="123.44" width="16.75" height="1.5" rx="0.75"/><rect class="cls-18" x="86.26" y="123.44" width="3.59" height="1.5" rx="0.75"/><rect class="cls-18" x="74.8" y="123.44" width="9.62" height="1.5" rx="0.75"/><path class="cls-17" d="M103,200h33a.76.76,0,0,1,.75.75h0a.76.76,0,0,1-.75.75H103a.75.75,0,0,1-.74-.75h0A.75.75,0,0,1,103,200Z" transform="translate(-27.42 -72.61)"/><path class="cls-17" d="M103,203.27h15.25a.75.75,0,0,1,.75.75h0a.75.75,0,0,1-.75.75H103a.75.75,0,0,1-.74-.75h0A.75.75,0,0,1,103,203.27Z" transform="translate(-27.42 -72.61)"/><path class="cls-17" d="M124.45,203.27h-2.1a.76.76,0,0,0-.75.75h0a.76.76,0,0,0,.75.75h2.1a.76.76,0,0,0,.75-.75h0A.76.76,0,0,0,124.45,203.27Z" transform="translate(-27.42 -72.61)"/><path class="cls-17" d="M135.91,203.27h-8.12a.76.76,0,0,0-.75.75h0a.76.76,0,0,0,.75.75h8.12a.76.76,0,0,0,.75-.75h0A.76.76,0,0,0,135.91,203.27Z" transform="translate(-27.42 -72.61)"/><path class="cls-17" d="M103,207.19h33a.76.76,0,0,1,.75.75h0a.76.76,0,0,1-.75.75H103a.75.75,0,0,1-.74-.75h0A.75.75,0,0,1,103,207.19Z" transform="translate(-27.42 -72.61)"/><rect class="cls-18" x="92.5" y="137.88" width="16.75" height="1.5" rx="0.75"/><rect class="cls-18" x="86.26" y="137.88" width="3.59" height="1.5" rx="0.75"/><rect class="cls-18" x="74.8" y="137.88" width="9.62" height="1.5" rx="0.75"/><path class="cls-17" d="M103,214.41h33a.75.75,0,0,1,.75.75h0a.75.75,0,0,1-.75.74H103a.74.74,0,0,1-.74-.74h0A.74.74,0,0,1,103,214.41Z" transform="translate(-27.42 -72.61)"/><path class="cls-19" d="M123.39,185.67a1.73,1.73,0,1,0-1.73-1.73A1.74,1.74,0,0,0,123.39,185.67Z" transform="translate(-27.42 -72.61)"/><path class="cls-20" d="M129.63,185.67a1.73,1.73,0,1,0-1.73-1.73A1.73,1.73,0,0,0,129.63,185.67Z" transform="translate(-27.42 -72.61)"/><path class="cls-21" d="M135.86,185.67a1.73,1.73,0,1,0-1.73-1.73A1.74,1.74,0,0,0,135.86,185.67Z" transform="translate(-27.42 -72.61)"/><rect class="cls-10" x="90.78" y="70.01" width="4.47" height="4.47" rx="0.89"/><rect class="cls-10" x="99.94" y="70.01" width="4.47" height="4.47" rx="0.89"/><rect class="cls-10" x="109.1" y="70.01" width="4.47" height="4.47" rx="0.89"/><rect class="cls-10" x="118.27" y="70.01" width="4.47" height="4.47" rx="0.89"/><rect class="cls-10" x="31.79" y="320.56" width="4.47" height="4.47" rx="0.89"/><rect class="cls-10" x="40.95" y="320.56" width="4.47" height="4.47" rx="0.89"/><rect class="cls-10" x="50.11" y="320.56" width="4.47" height="4.47" rx="0.89"/><rect class="cls-10" x="59.27" y="320.56" width="4.47" height="4.47" rx="0.89"/><path class="cls-22" d="M159.17,373a10.69,10.69,0,1,1-7.55,3.13,10.69,10.69,0,0,1,7.55-3.13Zm4.6,6.08a6.51,6.51,0,1,0,1.91,4.6A6.5,6.5,0,0,0,163.77,379.05Z" transform="translate(-27.42 -72.61)"/><path class="cls-17" d="M142.16,404.57h0a16.8,16.8,0,0,0,16.76-16.75V370.36a1.49,1.49,0,0,0-1.49-1.48H126.9a1.49,1.49,0,0,0-1.49,1.48v17.46A16.8,16.8,0,0,0,142.16,404.57Z" transform="translate(-27.42 -72.61)"/><path class="cls-22" d="M153.18,385.73a16.45,16.45,0,0,1-.81,5.13,17.53,17.53,0,0,1-1.11,2.64,17,17,0,0,1-8.43,7.7,16.62,16.62,0,0,1-9.15,1.05,16.68,16.68,0,0,0,18.54-1.05,17,17,0,0,0,4.5-5.12,16.3,16.3,0,0,0,1.18-2.54,16.47,16.47,0,0,0,1-5.72V370.36a1.49,1.49,0,0,0-1.49-1.48h-4.25v16.85Z" transform="translate(-27.42 -72.61)"/><path class="cls-23" d="M127.65,404.57h29a2.24,2.24,0,0,0,2.24-2.23h0a2.25,2.25,0,0,0-2.24-2.24h-29a2.25,2.25,0,0,0-2.24,2.24h0A2.24,2.24,0,0,0,127.65,404.57Z" transform="translate(-27.42 -72.61)"/><path class="cls-24" d="M130.78,372.06h0a2.83,2.83,0,0,1,2.82,2.82V385a2.83,2.83,0,0,1-2.82,2.82h0A2.83,2.83,0,0,1,128,385V374.88A2.83,2.83,0,0,1,130.78,372.06Z" transform="translate(-27.42 -72.61)"/><path class="cls-9" d="M127.86,348.22h12.77a1.76,1.76,0,0,0,1.76-1.76h0a1.76,1.76,0,0,0-1.76-1.76H123.45a4.61,4.61,0,0,1-4.6-4.6h0a4.61,4.61,0,0,1,4.6-4.6h44.67a4.61,4.61,0,0,1,4.6,4.6h0a4.61,4.61,0,0,1-4.6,4.6H152.54a1.76,1.76,0,0,0-1.76,1.76h0a1.76,1.76,0,0,0,1.76,1.76h6a3.56,3.56,0,0,1,3.54,3.55h0a3.55,3.55,0,0,1-3.54,3.55h-9.92a7.08,7.08,0,0,0-7.06,7.06v3.23a1.67,1.67,0,0,1-1.66,1.67h0a1.67,1.67,0,0,1-1.67-1.67v-6.15a4.15,4.15,0,0,0-4.14-4.14h-6.23a3.56,3.56,0,0,1-3.55-3.55h0A3.56,3.56,0,0,1,127.86,348.22Z" transform="translate(-27.42 -72.61)"/><path class="cls-25" d="M354.42,126.08H309.05a6,6,0,0,0-6,6v46.18a.66.66,0,0,0,1.14.47l10.21-10.21h40a6,6,0,0,0,6-6V132.07A6,6,0,0,0,354.42,126.08Z" transform="translate(-27.42 -72.61)"/><path class="cls-17" d="M353.1,124.48H307.73a6,6,0,0,0-6,6v46.18a.64.64,0,0,0,.41.62.66.66,0,0,0,.73-.14l10.21-10.21h40a6,6,0,0,0,6-6V130.47A6,6,0,0,0,353.1,124.48Z" transform="translate(-27.42 -72.61)"/><path class="cls-9" d="M321.08,147.82a4.42,4.42,0,0,1-1.67,3.65,7.29,7.29,0,0,1-4.65,1.34,11,11,0,0,1-4.84-1V148.4a19.15,19.15,0,0,0,2.93,1.09,8.28,8.28,0,0,0,2.19.32,3.11,3.11,0,0,0,1.84-.46,1.57,1.57,0,0,0,.63-1.36,1.53,1.53,0,0,0-.27-.89,3.07,3.07,0,0,0-.83-.75,18.3,18.3,0,0,0-2.22-1.16,11.08,11.08,0,0,1-2.36-1.42,5.21,5.21,0,0,1-1.25-1.59,4.49,4.49,0,0,1-.47-2.1,4.42,4.42,0,0,1,1.54-3.57,6.4,6.4,0,0,1,4.26-1.3,10.12,10.12,0,0,1,2.55.31,19.27,19.27,0,0,1,2.53.89l-1.17,2.83a16.5,16.5,0,0,0-2.27-.79,7.64,7.64,0,0,0-1.76-.22,2.35,2.35,0,0,0-1.58.48,1.57,1.57,0,0,0-.55,1.25,1.55,1.55,0,0,0,.22.84,2.47,2.47,0,0,0,.71.69,22.42,22.42,0,0,0,2.3,1.2,9.17,9.17,0,0,1,3.29,2.3,4.46,4.46,0,0,1,.9,2.83ZM339.71,144a10.86,10.86,0,0,1-1.07,5.06,6.49,6.49,0,0,1-3.15,3l4.13,4.6H335l-3.14-3.83h-.27a7.8,7.8,0,0,1-6-2.29q-2.11-2.28-2.11-6.55t2.12-6.53a7.88,7.88,0,0,1,6.05-2.26,7.78,7.78,0,0,1,6,2.28q2.08,2.26,2.09,6.53Zm-12.49,0a7.2,7.2,0,0,0,1.08,4.32,3.82,3.82,0,0,0,3.26,1.45c2.9,0,4.34-1.92,4.34-5.77s-1.43-5.78-4.32-5.78a3.82,3.82,0,0,0-3.26,1.45,7.09,7.09,0,0,0-1.1,4.33Zm16,8.58V135.45h3.63v14.12h6.94v3Z" transform="translate(-27.42 -72.61)"/><path class="cls-9" d="M188,255.8a2.48,2.48,0,1,0-2.49-2.48A2.48,2.48,0,0,0,188,255.8Z" transform="translate(-27.42 -72.61)"/><path class="cls-9" d="M351.27,284.51a2.49,2.49,0,1,0-2.48-2.49A2.5,2.5,0,0,0,351.27,284.51Z" transform="translate(-27.42 -72.61)"/><path class="cls-9" d="M284.27,97.32a2.49,2.49,0,1,0-2.49-2.48A2.48,2.48,0,0,0,284.27,97.32Z" transform="translate(-27.42 -72.61)"/><path class="cls-9" d="M89.07,372.63a2.49,2.49,0,1,0-2.48-2.48A2.49,2.49,0,0,0,89.07,372.63Z" transform="translate(-27.42 -72.61)"/><path class="cls-9" d="M166.28,154.86a2.49,2.49,0,1,0-2.49-2.48A2.48,2.48,0,0,0,166.28,154.86Z" transform="translate(-27.42 -72.61)"/><path class="cls-9" d="M184.48,96.7a1.13,1.13,0,1,0-1.13-1.13A1.14,1.14,0,0,0,184.48,96.7Z" transform="translate(-27.42 -72.61)"/><path class="cls-9" d="M214.35,180.45a1.13,1.13,0,1,0-1.13-1.13A1.13,1.13,0,0,0,214.35,180.45Z" transform="translate(-27.42 -72.61)"/><path class="cls-9" d="M288.64,132.38a1.13,1.13,0,1,0-1.13-1.13A1.13,1.13,0,0,0,288.64,132.38Z" transform="translate(-27.42 -72.61)"/><path class="cls-9" d="M320.68,252.56a1.13,1.13,0,1,0-1.13-1.13A1.13,1.13,0,0,0,320.68,252.56Z" transform="translate(-27.42 -72.61)"/><path class="cls-9" d="M403,173.17a1.13,1.13,0,1,0-1.13-1.13A1.13,1.13,0,0,0,403,173.17Z" transform="translate(-27.42 -72.61)"/><path class="cls-9" d="M197.59,225.61a1.13,1.13,0,1,0-1.12-1.13A1.14,1.14,0,0,0,197.59,225.61Z" transform="translate(-27.42 -72.61)"/><path class="cls-9" d="M137.87,309.37a1.13,1.13,0,1,0-1.13-1.13A1.14,1.14,0,0,0,137.87,309.37Z" transform="translate(-27.42 -72.61)"/><path class="cls-9" d="M61.4,372a1.13,1.13,0,1,0-1.13-1.12A1.13,1.13,0,0,0,61.4,372Z" transform="translate(-27.42 -72.61)"/><path class="cls-9" d="M404.44,303.54a1.13,1.13,0,1,0-1.13-1.13A1.13,1.13,0,0,0,404.44,303.54Z" transform="translate(-27.42 -72.61)"/><path class="cls-9" d="M424.11,406.24a1.13,1.13,0,1,0-1.13-1.13A1.13,1.13,0,0,0,424.11,406.24Z" transform="translate(-27.42 -72.61)"/><path class="cls-9" d="M53.39,232.17A1.13,1.13,0,1,0,52.26,231,1.13,1.13,0,0,0,53.39,232.17Z" transform="translate(-27.42 -72.61)"/><path class="cls-9" d="M125.49,166.62a1.13,1.13,0,1,0-1.13-1.13A1.14,1.14,0,0,0,125.49,166.62Z" transform="translate(-27.42 -72.61)"/><path class="cls-9" d="M248.58,98.15A1.13,1.13,0,1,0,247.45,97,1.13,1.13,0,0,0,248.58,98.15Z" transform="translate(-27.42 -72.61)"/><path class="cls-9" d="M325.05,110.54a1.13,1.13,0,1,0-1.13-1.13A1.14,1.14,0,0,0,325.05,110.54Z" transform="translate(-27.42 -72.61)"/><path class="cls-9" d="M182.88,214c-2.32,7.14-4.55,16.13-6.23,20.74-12.86,35.42-8.91,37.09,18.89,35,11.17-.84,22-.88,43.1-4.08,3.05-.44,1.58,1.08,3.12,2.57s-11.84,12-11.84,12l-24.87,26.19c-19.06-2-46.78-7.83-59-16.61-18.69-15.93,8.5-60.5,17.89-82.46.76-1.78,5.88-.46,6.37-1.92C173.13,206.46,184.34,209.47,182.88,214Z" transform="translate(-27.42 -72.61)"/><path class="cls-26" d="M190.31,207.23a17.24,17.24,0,0,1,8.77-3.1c1.86-.07,0-7-6.16-4,0,0-3.25.25-3.65-1.12s11.36-16.32,12.65-18a2.19,2.19,0,0,0-1.2-3.44c-.87,0-2.7,2.37-5.23,5.23s-5.4,6.06-5.9,6.11-1.13-.56-.35-2.67,5.46-13.57,5.12-14.7-2.42-1.68-3.64-.17-5.52,13.27-6.55,14.6-2.17.13-2.07-1.05,3-14.57,2.68-15.63-2.43-1.56-3.29.33-4.14,14.61-4.83,15.27-2.12.31-2.6-2.24-.89-7.94-1.43-8.52-2.95.44-2.93,3.13-.18,9.37-.33,10.36c-.8,5.2-3,9.69-3.05,13.83a10.1,10.1,0,0,0,1.05,4.47,14.39,14.39,0,0,0,8.72,7.41C182.58,215.15,185.4,210.71,190.31,207.23Z" transform="translate(-27.42 -72.61)"/><path class="cls-27" d="M190.31,207.23a17.24,17.24,0,0,1,8.77-3.1c.64,0,.85-.86.59-1.82-1-.38-5.89.78-10.41,2.83-6.61,3-14,6.49-19.68-1.48-1.49-2.06-2.05-7.83-1.55-10.32a32.65,32.65,0,0,0-1.71,8.11,10.13,10.13,0,0,0,1.05,4.47c-3.39,5.18,3.92,10,10,10.11,2.37.05,2.23-1.91,4.68-2.88C184.94,212,187.21,209.42,190.31,207.23Z" transform="translate(-27.42 -72.61)"/><path class="cls-2" d="M307.12,273.3s5.07,2.39,10.72,9c4,4.71,23.92,39.14,30.85,72.13,1.52,7.23-9.25,36.38-28.69,50.14l17.36,3.75c-1.66-3.43-39.34-2.2-41.83-7.57-7.22-15.57,19.28-41.34,19.28-41.34Z" transform="translate(-27.42 -72.61)"/><path class="cls-9" d="M260.33,261c10.14,2.69,40.51,10.84,42.18,12.56,2,2.06,11.05,51.47,11.08,56.3,0,4.46-10.44,65.68-12.15,82.4H212.66c-1.71-16.72-12.17-77.94-12.14-82.4,0-4.83,9.24-54.41,11.07-56.3s18.87-5.26,29-7.94l12.78,16.76h1.81l1.87,3.27,1.87-3.27h1.82Z" transform="translate(-27.42 -72.61)"/><path class="cls-2" d="M202.53,346.47C201,337.63,200,331.15,200,329.81c0-2.76,3.35-20.14,6.58-34.88,2.36,1.27,1,8.15,1.3,19C208.05,320.15,205.37,333.88,202.53,346.47Z" transform="translate(-27.42 -72.61)"/><path class="cls-2" d="M260.67,261c11.19,2.69,44.74,10.84,46.58,12.56,2.21,2.06,12.21,51.47,12.23,56.3,0,1.6-1.48,10.56-3.48,22.14-17.14,4.42-31.14,7.37-31.14,7.37s28.22-32.41,25.77-46.65-4.19-27.45-6.56-28.91-17.39-6.83-21.85-7.92-5.1,2.18-5.1,2.18-3.27,11.29-3.82,13.53-1.68,3.23-3.05,2.59-8.33-6.06-8.79-5.78-3.38,5.46-3.38,5.46l-2.06-2.5-1.75-4.46s-7.88,6.28-9.11,7.19a2.2,2.2,0,0,1-3.41-.82c-.36-1.28-3.83-17.83-3.83-17.83l2.48-11.28c5.27-1.3,10-2.43,13-3.17L253,282.33h2l2.07,3.27,2.07-3.27h2Z" transform="translate(-27.42 -72.61)"/><path class="cls-28" d="M256,284l1,1.63,1-1.63v30.53a1,1,0,1,1-2.06,0Z" transform="translate(-27.42 -72.61)"/><path class="cls-29" d="M256.51,225.8h.28c8.14-.13,14.89,8.45,15,19.06l.2,22.67c.06,6.83-2.65,12.9-6.76,16.4v-1.6h-6.1l-2.06,3.26L255,282.33h-5v2.51c-4.66-3.2-7.89-9.55-8-16.86l-.2-22.67C241.77,234.7,248.36,225.92,256.51,225.8Z" transform="translate(-27.42 -72.61)"/><path class="cls-30" d="M256.44,222a10.09,10.09,0,0,0-2.12-5.31l-15.73,12.58a10,10,0,0,0,4.72,3.24L256.44,222Zm-3.16-6.44-15.56,12.46a10,10,0,0,1-1.09-2.64L250.94,214A10.15,10.15,0,0,1,253.28,215.6Z" transform="translate(-27.42 -72.61)"/><path class="cls-31" d="M214.18,212.71l-5.77,2.93c-4.95,16.32,7.16,44.92,30.4,34.7,9.22-4.05-7.94-38.25-7.94-38.25Z" transform="translate(-27.42 -72.61)"/><path class="cls-32" d="M207.4,221.25c-1,13.07,6.38,29.57,19.91,31.12C231.91,232.72,214.75,224,207.4,221.25Z" transform="translate(-27.42 -72.61)"/><path class="cls-31" d="M293.69,181.18c10.76,9.12,26.72,39.86,10.37,50.27-5.31,3.38-9.27,8.15-18.36,4.06s-8.29-52.44-8.29-52.44S288.25,178.43,293.69,181.18Z" transform="translate(-27.42 -72.61)"/><path class="cls-33" d="M307.19,273.34c.16.11.58.41,1.19.92,2.7,7.82,5.39,20.42,6.8,40.72,0,.31-.14.59-.37.62s-.43-.2-.45-.52C312.86,293.53,310,280.82,307.19,273.34Z" transform="translate(-27.42 -72.61)"/><path class="cls-2" d="M224.09,268.08c-9,7.14-13.22,19.71-19,38.3l-.82-.11c5.65-18.19,9.37-30.69,18.38-38Z" transform="translate(-27.42 -72.61)"/><path class="cls-29" d="M229.5,209.55c-.24,0-.47,0-.71,0h0a9.55,9.55,0,1,0,7.53,3.21c-.22,2.82-1.24,6.19-4.84,5.94l1-5.41A3.28,3.28,0,0,0,229.5,209.55Z" transform="translate(-27.42 -72.61)"/><path class="cls-29" d="M297.42,220.93c.23.07.45.15.67.24h0a9.55,9.55,0,1,1-8.17.58c-.71,2.73-.84,6.25,2.65,7.18l.8-5.44A3.29,3.29,0,0,1,297.42,220.93Z" transform="translate(-27.42 -72.61)"/><path class="cls-26" d="M271.34,168.23h0a32.77,32.77,0,0,0-37.62,26.83l-4.91,29.3A32.77,32.77,0,0,0,255.63,262h0a32.77,32.77,0,0,0,37.62-26.82l4.91-29.31A32.77,32.77,0,0,0,271.34,168.23Z" transform="translate(-27.42 -72.61)"/><path class="cls-34" d="M271.34,168.23h0a32.77,32.77,0,0,0-37.62,26.82l-4.91,29.31c-.11.69-.2,1.37-.28,2.06,19.25,1.39,38.25-8,41.83-31.11,0,0,7.68,1.17,9.6,1.67s9.15,6.39,8.36,15.62-3.18,26.64-8.77,35.08S265,262.29,250.09,260.54a32.4,32.4,0,0,0,5.54,1.44h0a32.77,32.77,0,0,0,37.62-26.82l4.91-29.31A32.77,32.77,0,0,0,271.34,168.23Z" transform="translate(-27.42 -72.61)"/><path class="cls-31" d="M287.37,193.31s-1.81,13.05,6.43,18.23c0,0-1.11,6.64-1.44,8.58s.31,5.13,2.49,5.49l.77-4.6,3.09-3.95,2-21.36-7.39-14.35-6.47-1.49S287.39,193.53,287.37,193.31Z" transform="translate(-27.42 -72.61)"/><path class="cls-31" d="M291.21,182.48l-6.69,7.7s-10.68-.43-14.57-1.84,7.89-24.27,7.89-24.27,7.27.84,7.85,1.32,1.58,8.71,1.58,8.71Z" transform="translate(-27.42 -72.61)"/><path class="cls-30" d="M284.29,220.13l-15.13,12.11a10,10,0,0,1-.74-2.92l13.19-10.55a9.67,9.67,0,0,1,2.68,1.36Zm3.94,5.81a10.09,10.09,0,0,0-2.74-4.81l-15.62,12.49a10.15,10.15,0,0,0,4.1,3.74Z" transform="translate(-27.42 -72.61)"/><path class="cls-29" d="M279,233.15a4.23,4.23,0,1,0,3.38,4.93A4.23,4.23,0,0,0,279,233.15Z" transform="translate(-27.42 -72.61)"/><path class="cls-29" d="M243.27,226.46a4.23,4.23,0,1,0,3.38,4.93A4.22,4.22,0,0,0,243.27,226.46Z" transform="translate(-27.42 -72.61)"/><path class="cls-31" d="M244.23,209.75a8.46,8.46,0,0,1,7.83,1.27,1,1,0,0,0,1.47-.11,1.06,1.06,0,0,0-.12-1.48,10.59,10.59,0,0,0-9.8-1.68,1,1,0,1,0,.62,2Z" transform="translate(-27.42 -72.61)"/><path class="cls-31" d="M243.14,221.89a3.06,3.06,0,0,1,5.52-1.27,3,3,0,0,1,.53,2.29,1,1,0,0,0,2.07.34A5.18,5.18,0,0,0,247,217.3a5.16,5.16,0,0,0-6,4.25,1,1,0,0,0,.86,1.2A1.05,1.05,0,0,0,243.14,221.89Z" transform="translate(-27.42 -72.61)"/><path class="cls-31" d="M281.85,228.38a1.06,1.06,0,0,0,.86,1.21,1,1,0,0,0,1.21-.86,5.18,5.18,0,0,0-4.24-6,5.17,5.17,0,0,0-5.95,4.25,1,1,0,1,0,2.07.34,3.08,3.08,0,0,1,1.24-2,3.07,3.07,0,0,1,4.29.72A3.05,3.05,0,0,1,281.85,228.38Z" transform="translate(-27.42 -72.61)"/><path class="cls-31" d="M284.78,216.54a1,1,0,0,0,1.46-.23,1.05,1.05,0,0,0-.23-1.46,10.64,10.64,0,0,0-9.81-1.6,1,1,0,0,0,.76,1.95A8.47,8.47,0,0,1,284.78,216.54Z" transform="translate(-27.42 -72.61)"/><path class="cls-34" d="M288.88,398.43s5.08-3.4,7.82-5.05a7.21,7.21,0,0,1,7.35.08,116.42,116.42,0,0,1,10.49,8.39c1.17,1.24-5.64,4-6.34,4S288.88,398.43,288.88,398.43Z" transform="translate(-27.42 -72.61)"/><path class="cls-32" d="M174.54,410.21H339a4.6,4.6,0,0,0,4.59-4.6h0A4.61,4.61,0,0,0,339,401H174.54a4.6,4.6,0,0,0-4.59,4.59h0A4.6,4.6,0,0,0,174.54,410.21Z" transform="translate(-27.42 -72.61)"/><path class="cls-31" d="M269,239.61a9.13,9.13,0,0,1-18-3.35h0a1.58,1.58,0,0,1,1.84-1.26l14.83,2.77a1.58,1.58,0,0,1,1.26,1.84Z" transform="translate(-27.42 -72.61)"/><path class="cls-35" d="M264.39,246a9.14,9.14,0,0,1-10.49-1.31,5.68,5.68,0,0,1,5.75-2.35A5.77,5.77,0,0,1,264.39,246Z" transform="translate(-27.42 -72.61)"/><path class="cls-9" d="M253.44,235.1l13.94,2.6c-.07,1.58-1.07,3-2.17,3.15-1.34.18-11.37-2-11.94-2.9A5.47,5.47,0,0,1,253.44,235.1Z" transform="translate(-27.42 -72.61)"/><path class="cls-36" d="M258.58,229.69s-1.62,2.06-1.43,3.32,2,.92,2.35-.11a9.06,9.06,0,0,0,.09-3.37C259.5,229.28,259,229.1,258.58,229.69Z" transform="translate(-27.42 -72.61)"/><path class="cls-31" d="M248.24,212a11,11,0,0,1,9.17,10.34,24,24,0,0,1,10.94,1.82,11,11,0,0,1,20.85,1.25l4.72-2.35a.9.9,0,0,1,1.22.4.91.91,0,0,1-.4,1.23l-5.21,2.6a11.17,11.17,0,0,1-.11,2.76,11,11,0,0,1-21.71-3.63c0-.17.07-.33.1-.5a21.94,21.94,0,0,0-10.47-1.75c0,.17,0,.33-.07.5a11,11,0,1,1-20.89-6.33l-4-4.1a.91.91,0,0,1,1.3-1.28l3.64,3.72A11,11,0,0,1,248.24,212ZM286,222.89a9.17,9.17,0,1,0,1.58,6.84,9.14,9.14,0,0,0-1.58-6.84Zm-32.15-5.38a9.17,9.17,0,1,0,1.58,6.84A9.1,9.1,0,0,0,253.88,217.51Z" transform="translate(-27.42 -72.61)"/><path class="cls-32" d="M284.52,190.18c2.42-14.14-8.94-17.73-12.73-4.17-5.83,20.83-15.63,48.38-54.36,33.6l-9-4c9.76-27.54,37.27-56.57,67.74-57.64,9.36-.33,20.39,14.73,21.12,17.13s-.51,10.19-1.35,11.34c0,0-7.7,7.17-8.55,6.84S284.52,190.18,284.52,190.18Z" transform="translate(-27.42 -72.61)"/><path class="cls-14" d="M214.22,202.76a101.3,101.3,0,0,1,7.94-12.27c13.46,12.1,45,3.45,46.33-31.63,1.21-.23,2.43-.42,3.65-.56C268.29,193.39,245,215.11,214.22,202.76Z" transform="translate(-27.42 -72.61)"/><path class="cls-31" d="M270.5,190.46c-6.05,20-17.05,42.89-53.07,29.15l-9-4a80.39,80.39,0,0,1,3.3-8C222.16,213.11,250.85,223.8,270.5,190.46Z" transform="translate(-27.42 -72.61)"/><path class="cls-32" d="M335.94,312.8H177.55a3.61,3.61,0,0,0-3.64,4.28L186,397.48a5.17,5.17,0,0,0,4.93,4.28H322.54a5.19,5.19,0,0,0,4.93-4.28l12.1-80.4A3.6,3.6,0,0,0,335.94,312.8Z" transform="translate(-27.42 -72.61)"/><path class="cls-9" d="M271.87,263.67s-3.27,7.84-4.37,9.83-8.38,8.82-8.38,8.82-.23.59,0,.91,11.15,9.29,11.15,9.29.91.63,1.59-.78,4.05-13.34,4.33-16.34-1.37-12.29-1.37-12.29l-2.85-1.6Z" transform="translate(-27.42 -72.61)"/><path class="cls-9" d="M242.23,263.67s3.27,7.84,4.37,9.83,8.38,8.82,8.38,8.82.23.59,0,.91-11.15,9.29-11.15,9.29-.91.63-1.59-.78-4.05-13.34-4.32-16.34.86-10.84.86-10.84l3.35-3.05Z" transform="translate(-27.42 -72.61)"/><path class="cls-32" d="M299.37,187.41c-7.72,10.11-3.82,32.25,11.36,33.83C312.63,210.7,306.2,196.46,299.37,187.41Z" transform="translate(-27.42 -72.61)"/><path class="cls-37" d="M332.41,316.6H181.08a3.44,3.44,0,0,0-3.48,4.09l11.57,76.82a4.93,4.93,0,0,0,4.7,4.09H319.61a4.94,4.94,0,0,0,4.71-4.09l11.57-76.82A3.45,3.45,0,0,0,332.41,316.6Z" transform="translate(-27.42 -72.61)"/><path class="cls-32" d="M186.2,377.81l3,19.7a4.93,4.93,0,0,0,4.7,4.09H319.61a4.94,4.94,0,0,0,4.71-4.09l11.57-76.82a3.44,3.44,0,0,0-2.24-3.89C316.33,346.68,273.76,395.63,186.2,377.81Z" transform="translate(-27.42 -72.61)"/><path class="cls-32" d="M256.74,381.18c9.27,0,16.84-6.31,16.84-14.05s-7.57-14.05-16.84-14.05-16.83,6.31-16.83,14.05S247.47,381.18,256.74,381.18Z" transform="translate(-27.42 -72.61)"/><path class="cls-9" d="M256.74,356.45a13.45,13.45,0,0,1,11.05,5.29l-19.57,13.35a10,10,0,0,1-4.27-8c0-5.9,5.73-10.68,12.79-10.68Zm10.39,16.91-5.87-3.24-9.8,6.73a14.92,14.92,0,0,0,5.28,1A13.7,13.7,0,0,0,267.13,373.36Z" transform="translate(-27.42 -72.61)"/><path class="cls-2" d="M207.31,290.74a140.87,140.87,0,0,1-26.21,1.4c-26.35-.72-41.37-7.7-39.89-30.31-2.7,11.59-2.26,21.86,4.88,27.94,12,8.64,39,14.45,58.07,16.52.45-2.17.91-4.37,1.37-6.56C206.13,296.65,206.73,293.61,207.31,290.74Z" transform="translate(-27.42 -72.61)"/><path class="cls-32" d="M126,413.86H388.15a6,6,0,0,1,6,6h0a6,6,0,0,1-6,6H126a6,6,0,0,1-6-6h0A6,6,0,0,1,126,413.86Z" transform="translate(-27.42 -72.61)"/><path class="cls-38" d="M113.25,404.57H400.89a7.67,7.67,0,0,1,7.64,7.64h0a7.67,7.67,0,0,1-7.64,7.64H113.25a7.67,7.67,0,0,1-7.64-7.64h0A7.67,7.67,0,0,1,113.25,404.57Z" transform="translate(-27.42 -72.61)"/><rect class="cls-39" x="260.18" y="331.96" width="15.89" height="15.27"/><rect class="cls-39" x="284.33" y="331.96" width="8.25" height="15.27"/><rect class="cls-39" x="301.25" y="331.96" width="4.13" height="15.27"/><rect class="cls-39" x="319.51" y="331.96" width="17.78" height="15.27"/><rect class="cls-39" x="350.69" y="331.96" width="8.89" height="15.27"/><path class="cls-40" d="M113.87,407.05h139.8a4.56,4.56,0,0,1,4.54,4.54h0a4.56,4.56,0,0,1-4.54,4.54H113.87a4.55,4.55,0,0,1-4.54-4.54h0A4.56,4.56,0,0,1,113.87,407.05Z" transform="translate(-27.42 -72.61)"/></svg>