<svg xmlns="http://www.w3.org/2000/svg" viewBox="0 0 72.11 72.11"><defs><style>.cls-1{fill:#ed5a6a;}.cls-2{fill:#ffd0d5;}.cls-3{fill:none;stroke:#fff;stroke-linecap:round;stroke-linejoin:round;stroke-width:4.6px;}</style></defs><g id="Layer_2" data-name="Layer 2"><g id="Layer_1-2" data-name="Layer 1"><path class="cls-1" d="M32.44,70.06a3.92,3.92,0,0,1-3.91-3.91V60.08a24.07,24.07,0,0,1-4.14-1.71L20.1,62.66a3.92,3.92,0,0,1-5.53,0L9.45,57.54a3.92,3.92,0,0,1,0-5.53l4.29-4.29A24.58,24.58,0,0,1,12,43.58H6a3.91,3.91,0,0,1-3.91-3.91V32.44A3.91,3.91,0,0,1,6,28.53H12a25.44,25.44,0,0,1,1.72-4.14L9.45,20.1a3.92,3.92,0,0,1,0-5.53l5.12-5.12a3.91,3.91,0,0,1,5.53,0l4.29,4.28A24.54,24.54,0,0,1,28.53,12V6a3.91,3.91,0,0,1,3.91-3.91h7.23A3.91,3.91,0,0,1,43.58,6V12a24.4,24.4,0,0,1,4.14,1.71L52,9.45a3.91,3.91,0,0,1,5.53,0l5.12,5.11a3.92,3.92,0,0,1,0,5.53l-4.29,4.29a24.89,24.89,0,0,1,1.71,4.14h6.07a3.92,3.92,0,0,1,3.91,3.91v7.23a3.92,3.92,0,0,1-3.91,3.91H60.08a24.54,24.54,0,0,1-1.71,4.14L62.66,52a3.92,3.92,0,0,1,0,5.53l-5.12,5.12a3.92,3.92,0,0,1-5.53,0l-4.29-4.29a24.4,24.4,0,0,1-4.14,1.71v6.07a3.92,3.92,0,0,1-3.91,3.91Zm3.61-42.92A8.92,8.92,0,1,0,45,36.06,8.93,8.93,0,0,0,36.05,27.14Z"/><path class="cls-2" d="M39.67,4.1A1.86,1.86,0,0,1,41.53,6v6.69a1.22,1.22,0,0,0,.9,1.17,23.07,23.07,0,0,1,4.83,2,1.27,1.27,0,0,0,.62.16,1.19,1.19,0,0,0,.85-.34l4.73-4.74a1.88,1.88,0,0,1,1.32-.54,1.86,1.86,0,0,1,1.31.54L61.21,16a1.87,1.87,0,0,1,0,2.63l-4.73,4.73a1.2,1.2,0,0,0-.21,1.44,22.85,22.85,0,0,1,2,4.86,1.22,1.22,0,0,0,1.17.9h6.69A1.86,1.86,0,0,1,68,32.44v7.23a1.86,1.86,0,0,1-1.86,1.86H59.46a1.22,1.22,0,0,0-1.17.9,23.07,23.07,0,0,1-2,4.83,1.22,1.22,0,0,0,.19,1.47l4.73,4.73a1.87,1.87,0,0,1,0,2.63l-5.12,5.12a1.86,1.86,0,0,1-1.31.54,1.88,1.88,0,0,1-1.32-.54l-4.73-4.74a1.2,1.2,0,0,0-.85-.35,1.11,1.11,0,0,0-.59.16,23.58,23.58,0,0,1-4.86,2,1.22,1.22,0,0,0-.9,1.17v6.69A1.86,1.86,0,0,1,39.67,68H32.44a1.86,1.86,0,0,1-1.86-1.86V59.46a1.22,1.22,0,0,0-.9-1.17,23.07,23.07,0,0,1-4.83-2,1.27,1.27,0,0,0-.62-.16,1.19,1.19,0,0,0-.85.34l-4.73,4.74a1.88,1.88,0,0,1-1.32.54A1.86,1.86,0,0,1,16,61.21L10.9,56.09a1.87,1.87,0,0,1,0-2.63l4.74-4.73a1.19,1.19,0,0,0,.19-1.44,23.58,23.58,0,0,1-2-4.86,1.23,1.23,0,0,0-1.17-.9H6A1.86,1.86,0,0,1,4.1,39.67V32.44A1.86,1.86,0,0,1,6,30.58h6.69a1.22,1.22,0,0,0,1.17-.9,23.07,23.07,0,0,1,2-4.83,1.24,1.24,0,0,0-.18-1.47L10.9,18.65a1.87,1.87,0,0,1,0-2.63L16,10.9a1.86,1.86,0,0,1,1.31-.54,1.88,1.88,0,0,1,1.32.54l4.73,4.74a1.2,1.2,0,0,0,.85.35,1.14,1.14,0,0,0,.59-.16,23.35,23.35,0,0,1,4.86-2,1.22,1.22,0,0,0,.9-1.17V6A1.86,1.86,0,0,1,32.44,4.1h7.23M36.05,47a11,11,0,1,0-11-11,11,11,0,0,0,11,11M39.67,0H32.44a6,6,0,0,0-6,6v4.6c-.56.22-1.12.45-1.67.7L21.55,8a6,6,0,0,0-8.43,0L8,13.12a6,6,0,0,0,0,8.43l3.26,3.25c-.25.55-.49,1.11-.7,1.68H6a6,6,0,0,0-6,6v7.23a6,6,0,0,0,6,6h4.6q.31.85.69,1.68L8,50.56A6,6,0,0,0,8,59l5.11,5.12a6,6,0,0,0,8.43,0l3.25-3.26c.55.25,1.11.49,1.68.7v4.6a6,6,0,0,0,6,6h7.23a6,6,0,0,0,6-6v-4.6c.57-.22,1.13-.45,1.68-.7l3.25,3.26a6,6,0,0,0,8.44,0L64.11,59a6,6,0,0,0,0-8.43l-3.26-3.25c.25-.55.48-1.11.7-1.68h4.6a6,6,0,0,0,6-6V32.44a6,6,0,0,0-6-6h-4.6c-.22-.57-.45-1.13-.7-1.68l3.26-3.25a6,6,0,0,0,0-8.43L59,8a6,6,0,0,0-8.43,0l-3.25,3.25c-.55-.25-1.11-.49-1.68-.7V6a6,6,0,0,0-6-6ZM36.05,42.92a6.87,6.87,0,1,1,6.87-6.86,6.87,6.87,0,0,1-6.87,6.86Z"/><path class="cls-1" d="M36.14,47h-.09a11,11,0,0,1,0-22h.09V4.1h-3.7A1.86,1.86,0,0,0,30.58,6v6.69a1.22,1.22,0,0,1-.9,1.17,23.35,23.35,0,0,0-4.86,2,1.19,1.19,0,0,1-1.44-.19L18.65,10.9a1.87,1.87,0,0,0-2.63,0L10.9,16a1.87,1.87,0,0,0,0,2.63l4.74,4.73a1.24,1.24,0,0,1,.18,1.47,23.07,23.07,0,0,0-2,4.83,1.22,1.22,0,0,1-1.17.9H6A1.86,1.86,0,0,0,4.1,32.44v7.23A1.86,1.86,0,0,0,6,41.53h6.69a1.23,1.23,0,0,1,1.17.9,23.58,23.58,0,0,0,2,4.86,1.19,1.19,0,0,1-.19,1.44L10.9,53.46a1.87,1.87,0,0,0,0,2.63L16,61.21a1.87,1.87,0,0,0,2.63,0l4.73-4.74a1.24,1.24,0,0,1,1.47-.18,23.07,23.07,0,0,0,4.83,2,1.22,1.22,0,0,1,.9,1.17v6.69A1.86,1.86,0,0,0,32.44,68h3.7Z"/><path class="cls-3" d="M37.23,19.34A15.84,15.84,0,0,1,53.07,35.18"/></g></g></svg>