<svg xmlns="http://www.w3.org/2000/svg" xmlns:xlink="http://www.w3.org/1999/xlink" viewBox="0 0 673.28 140.07"><defs><linearGradient id="fd1ee20b-39d6-4ed1-8a2d-031da63348d1" x1="71.27" y1="104.25" x2="134.01" y2="104.25" gradientUnits="userSpaceOnUse"><stop offset="0" stop-color="#2e217c"/><stop offset="0.13" stop-color="#2c2982"/><stop offset="0.33" stop-color="#254094"/><stop offset="0.57" stop-color="#1b64b1"/><stop offset="0.85" stop-color="#0d97d9"/><stop offset="1" stop-color="#05b4f0"/></linearGradient><linearGradient id="f6594e2b-08b6-4d7a-90c2-e2343779a3f9" x1="70.55" y1="122.1" x2="100.03" y2="122.1" gradientUnits="userSpaceOnUse"><stop offset="0" stop-color="#ffac03"/><stop offset="0.14" stop-color="#ffa80b"/><stop offset="0.36" stop-color="#ff9d22"/><stop offset="0.63" stop-color="#ff8a46"/><stop offset="0.95" stop-color="#ff7179"/><stop offset="1" stop-color="#ff6c82"/></linearGradient><linearGradient id="e2de3f01-8bfc-4eb5-aecc-53906d136e99" x1="4.18" y1="33.59" x2="159.14" y2="72.24" gradientUnits="userSpaceOnUse"><stop offset="0" stop-color="#fd6d50"/><stop offset="0.09" stop-color="#f56a57"/><stop offset="0.23" stop-color="#de616b"/><stop offset="0.4" stop-color="#ba528b"/><stop offset="0.49" stop-color="#a4499e"/><stop offset="0.68" stop-color="#853dbb"/><stop offset="1" stop-color="#4825f2"/></linearGradient></defs><g id="b97d201d-f3c0-4e8b-853a-f69f36e6bd8d" data-name="Layer 2"><g id="a8cf0a34-c839-4202-a4bb-b4413e01665c" data-name="OBJECTS"><path d="M128.13,116.64c6.46-4.82,8.54-14.08,1.39-19.89-7.9-6.24-22.1-8.87-31.72-9.08-6-.35-15.82,2-21.31,4.84C72.08,94.82,68.43,97,74.4,99,82,101.3,91.81,108,100.1,114.5,108.11,120.82,119,124,128.13,116.64Z" style="fill:url(#fd1ee20b-39d6-4ed1-8a2d-031da63348d1)"/><path d="M92,136.75c7.57,7.27,10.44,1.45,5.88-6.39-3.61-6.79-8.29-15.53-13.95-20.69-3.19-2.94-17.63-10.67-12.1-.32A88,88,0,0,0,92,136.75Z" style="fill:url(#f6594e2b-08b6-4d7a-90c2-e2343779a3f9)"/><path d="M62.45,92.55c17.11-7,29.28-13.06,48.14-9.91C133.35,86.45,137.37,99.25,142,101c5.43,1.89,9.56-2.28,12.09-6.76,6.57-11.89,7.88-32,1.26-49C146.7,23.6,129.25,11.1,107.76,4.43A84.39,84.39,0,0,0,48.24,6.54C33.5,12.61,18.62,21.77,8.4,38.84-5.68,62.35.17,79,9.74,87.32,20.13,96.35,47.25,98.29,62.45,92.55Z" style="fill:url(#e2de3f01-8bfc-4eb5-aecc-53906d136e99)"/><text transform="translate(165.77 84.45)" style="font-size:90px;fill:#3c4fe0;font-family:Poppins-Bold, Poppins;font-weight:700;letter-spacing:-0.07599826388888889em">Openetwork</text></g></g></svg>