<svg xmlns="http://www.w3.org/2000/svg" xmlns:xlink="http://www.w3.org/1999/xlink" viewBox="0 0 154 32"><defs><linearGradient id="bdec6183-3b17-4d32-8d15-48b8990d94bb" x1="16.3" y1="23.82" x2="30.65" y2="23.82" gradientUnits="userSpaceOnUse"><stop offset="0" stop-color="#2e217c"/><stop offset="0.13" stop-color="#2c2982"/><stop offset="0.33" stop-color="#254094"/><stop offset="0.57" stop-color="#1b64b1"/><stop offset="0.85" stop-color="#0d97d9"/><stop offset="1" stop-color="#05b4f0"/></linearGradient><linearGradient id="a0ffd508-c946-45de-99c1-d4ebf60ca9ac" x1="16.14" y1="27.89" x2="22.88" y2="27.89" gradientUnits="userSpaceOnUse"><stop offset="0" stop-color="#ffac03"/><stop offset="0.14" stop-color="#ffa80b"/><stop offset="0.36" stop-color="#ff9d22"/><stop offset="0.63" stop-color="#ff8a46"/><stop offset="0.95" stop-color="#ff7179"/><stop offset="1" stop-color="#ff6c82"/></linearGradient><linearGradient id="a3f95992-45f0-4caf-87a6-fec8beee0b43" x1="0.95" y1="7.67" x2="36.4" y2="16.51" gradientUnits="userSpaceOnUse"><stop offset="0" stop-color="#fd6d50"/><stop offset="0.09" stop-color="#f56a57"/><stop offset="0.23" stop-color="#de616b"/><stop offset="0.4" stop-color="#ba528b"/><stop offset="0.49" stop-color="#a4499e"/><stop offset="0.68" stop-color="#853dbb"/><stop offset="1" stop-color="#4825f2"/></linearGradient></defs><g id="eb404b80-8c9e-48a1-9617-69252351d75d" data-name="Layer 2"><g id="a32a711c-5503-4515-b741-1ed84c00bc69" data-name="OBJECTS"><path d="M29.31,26.65a2.8,2.8,0,0,0,.31-4.55c-1.8-1.42-5.05-2-7.25-2.07a11.36,11.36,0,0,0-4.87,1.1c-1,.53-1.85,1-.48,1.49a20.92,20.92,0,0,1,5.88,3.54C24.73,27.6,27.21,28.32,29.31,26.65Z" style="fill:url(#bdec6183-3b17-4d32-8d15-48b8990d94bb)"/><path d="M21,31.24c1.73,1.66,2.38.33,1.34-1.46a18,18,0,0,0-3.19-4.72c-.73-.68-4-2.44-2.77-.08A20,20,0,0,0,21,31.24Z" style="fill:url(#a0ffd508-c946-45de-99c1-d4ebf60ca9ac)"/><path d="M14.28,21.14c3.92-1.6,6.7-3,11-2.26,5.21.87,6.13,3.79,7.19,4.19,1.24.43,2.19-.52,2.76-1.54,1.51-2.72,1.81-7.32.29-11.21-2-4.93-6-7.79-10.88-9.31A19.28,19.28,0,0,0,11,1.5,18,18,0,0,0,1.92,8.87C-1.3,14.24,0,18.05,2.23,20,4.6,22,10.81,22.46,14.28,21.14Z" style="fill:url(#a3f95992-45f0-4caf-87a6-fec8beee0b43)"/><path d="M46,19.44A7.27,7.27,0,0,1,38.6,12a7.41,7.41,0,0,1,14.82,0A7.24,7.24,0,0,1,46,19.44Zm0-3.21c2.3,0,3.81-1.67,3.81-4.2S48.33,7.84,46,7.84,42.2,9.46,42.2,12,43.68,16.23,46,16.23Z" style="fill:#3c4fe0"/><path d="M60.87,7.65c2.82,0,5.06,2.26,5.06,5.88s-2.24,5.93-5.06,5.93a4.12,4.12,0,0,1-3.54-1.77v7.08H53.81V7.82h3.52V9.44A4,4,0,0,1,60.87,7.65Zm-1,3.07a2.57,2.57,0,0,0-2.51,2.84,2.57,2.57,0,0,0,2.51,2.83,2.6,2.6,0,0,0,2.53-2.86A2.55,2.55,0,0,0,59.82,10.72Z" style="fill:#3c4fe0"/><path d="M71.33,19.46a5.53,5.53,0,0,1-5.81-5.9,5.52,5.52,0,0,1,5.81-5.91,5.41,5.41,0,0,1,5.72,5.72,9.16,9.16,0,0,1-.06,1H69a2.13,2.13,0,0,0,2.18,2.2A1.88,1.88,0,0,0,73,15.49h3.74A5.36,5.36,0,0,1,71.33,19.46Zm-2.29-7h4.41a2,2,0,0,0-2.16-2A2.18,2.18,0,0,0,69,12.44Z" style="fill:#3c4fe0"/><path d="M85.26,13.06a2.21,2.21,0,1,0-4.4,0v6.23H77.34V7.82h3.52V9.34a4.2,4.2,0,0,1,3.48-1.65c2.65,0,4.42,1.81,4.42,4.9v6.7h-3.5Z" style="fill:#3c4fe0"/><path d="M94.75,19.46a5.53,5.53,0,0,1-5.8-5.9,5.51,5.51,0,0,1,5.8-5.91,5.41,5.41,0,0,1,5.73,5.72,7.33,7.33,0,0,1-.07,1h-8a2.13,2.13,0,0,0,2.18,2.2,1.86,1.86,0,0,0,1.83-1.11h3.75A5.37,5.37,0,0,1,94.75,19.46Zm-2.28-7h4.4a2,2,0,0,0-2.16-2A2.18,2.18,0,0,0,92.47,12.44Z" style="fill:#3c4fe0"/><path d="M101.32,10.74h-1.4V7.82h1.4V5h3.52v2.8h2.31v2.92h-2.31v4.6c0,.68.29,1,1.07,1h1.26v3h-1.79c-2.39,0-4.06-1-4.06-4Z" style="fill:#3c4fe0"/><path d="M106.36,7.82h3.53l1.62,8.2,1.94-8.2h3.72l2,8.16,1.6-8.16h3.32l-3.11,11.47h-3.89l-1.81-7.44-1.88,7.44h-3.87Z" style="fill:#3c4fe0"/><path d="M129.05,19.46a5.63,5.63,0,0,1-5.93-5.9,6,6,0,0,1,11.94,0A5.69,5.69,0,0,1,129.05,19.46Zm0-3.05c1.26,0,2.43-.92,2.43-2.85s-1.15-2.86-2.39-2.86-2.39.9-2.39,2.86S127.77,16.41,129.05,16.41Z" style="fill:#3c4fe0"/><path d="M138.89,19.29h-3.52V7.82h3.52V9.73a4.29,4.29,0,0,1,3.6-2v3.73h-1c-1.66,0-2.63.57-2.63,2.55Z" style="fill:#3c4fe0"/><path d="M142.62,4.07h3.52v8.41l3.47-4.66H154l-4.78,5.76L154,19.29h-4.36l-3.5-4.81v4.81h-3.52Z" style="fill:#3c4fe0"/></g></g></svg>