<svg xmlns="http://www.w3.org/2000/svg" xmlns:xlink="http://www.w3.org/1999/xlink" viewBox="0 0 492.51 148.14"><defs><linearGradient id="ab8d593c-7eaa-49e3-97df-1e8607188938" x1="75.38" y1="110.26" x2="141.73" y2="110.26" gradientUnits="userSpaceOnUse"><stop offset="0" stop-color="#2e217c"/><stop offset="0.13" stop-color="#2c2982"/><stop offset="0.33" stop-color="#254094"/><stop offset="0.57" stop-color="#1b64b1"/><stop offset="0.85" stop-color="#0d97d9"/><stop offset="1" stop-color="#05b4f0"/></linearGradient><linearGradient id="eabc50f1-2375-4497-b416-d01201930e3b" x1="74.61" y1="129.13" x2="105.8" y2="129.13" gradientUnits="userSpaceOnUse"><stop offset="0" stop-color="#ffac03"/><stop offset="0.14" stop-color="#ffa80b"/><stop offset="0.36" stop-color="#ff9d22"/><stop offset="0.63" stop-color="#ff8a46"/><stop offset="0.95" stop-color="#ff7179"/><stop offset="1" stop-color="#ff6c82"/></linearGradient><linearGradient id="edb2b86a-7f5d-4b9c-af05-d874464fe4a1" x1="4.42" y1="35.52" x2="168.31" y2="76.4" gradientUnits="userSpaceOnUse"><stop offset="0" stop-color="#fd6d50"/><stop offset="0.09" stop-color="#f56a57"/><stop offset="0.23" stop-color="#de616b"/><stop offset="0.4" stop-color="#ba528b"/><stop offset="0.49" stop-color="#a4499e"/><stop offset="0.68" stop-color="#853dbb"/><stop offset="1" stop-color="#4825f2"/></linearGradient></defs><g id="b98bd514-27e9-45c4-a94e-135b0ab7b27e" data-name="Layer 2"><g id="b70e4926-c176-42d3-b408-f38a8860d376" data-name="OBJECTS"><path d="M135.52,123.36c6.83-5.1,9-14.89,1.46-21-8.36-6.59-23.37-9.38-33.55-9.6-6.36-.36-16.72,2.07-22.54,5.12-4.66,2.44-8.52,4.76-2.21,6.87,8,2.43,18.42,9.46,27.19,16.39C114.34,127.78,125.83,131.11,135.52,123.36Z" style="fill:url(#ab8d593c-7eaa-49e3-97df-1e8607188938)"/><path d="M97.27,144.62c8,7.69,11,1.54,6.21-6.75-3.81-7.18-8.76-16.42-14.74-21.88-3.38-3.11-18.65-11.29-12.81-.34A93,93,0,0,0,97.27,144.62Z" style="fill:url(#eabc50f1-2375-4497-b416-d01201930e3b)"/><path d="M66.05,97.88C84.14,90.45,97,84.07,117,87.4c24.07,4,28.32,17.57,33.22,19.4,5.75,2,10.11-2.41,12.78-7.15,7-12.57,8.35-33.87,1.34-51.88C155.15,25,136.69,11.73,114,4.69A89.2,89.2,0,0,0,51,6.92C35.43,13.33,19.7,23,8.88,41.07-6,65.94.18,83.57,10.3,92.36,21.29,101.9,50,104,66.05,97.88Z" style="fill:url(#edb2b86a-7f5d-4b9c-af05-d874464fe4a1)"/><text transform="translate(193.74 95.68)" style="font-size:60.054290771484375px;fill:#5468ff;font-family:Ubuntu-Medium, Ubuntu;font-weight:500;letter-spacing:-0.07499724319679409em">openet<tspan x="173.5" y="0" style="letter-spacing:-0.08498169838387812em">w</tspan><tspan x="215.23" y="0">ork</tspan></text></g></g></svg>