<svg xmlns="http://www.w3.org/2000/svg" xmlns:xlink="http://www.w3.org/1999/xlink" viewBox="0 0 59.95 52.58"><defs><linearGradient id="a07de5bc-d6f5-467e-b437-48b84e230248" x1="26.75" y1="39.13" x2="50.31" y2="39.13" gradientUnits="userSpaceOnUse"><stop offset="0" stop-color="#2e217c"/><stop offset="0.13" stop-color="#2c2982"/><stop offset="0.33" stop-color="#254094"/><stop offset="0.57" stop-color="#1b64b1"/><stop offset="0.85" stop-color="#0d97d9"/><stop offset="1" stop-color="#05b4f0"/></linearGradient><linearGradient id="f1ca40b3-5c2c-40c0-9209-ca07efdaefaf" x1="26.48" y1="45.83" x2="37.55" y2="45.83" gradientUnits="userSpaceOnUse"><stop offset="0" stop-color="#ffac03"/><stop offset="0.14" stop-color="#ffa80b"/><stop offset="0.36" stop-color="#ff9d22"/><stop offset="0.63" stop-color="#ff8a46"/><stop offset="0.95" stop-color="#ff7179"/><stop offset="1" stop-color="#ff6c82"/></linearGradient><linearGradient id="ad3fa4fe-8ff4-4bcd-82be-51c0ed096889" x1="1.57" y1="12.61" x2="59.74" y2="27.12" gradientUnits="userSpaceOnUse"><stop offset="0" stop-color="#fd6d50"/><stop offset="0.09" stop-color="#f56a57"/><stop offset="0.23" stop-color="#de616b"/><stop offset="0.4" stop-color="#ba528b"/><stop offset="0.49" stop-color="#a4499e"/><stop offset="0.68" stop-color="#853dbb"/><stop offset="1" stop-color="#4825f2"/></linearGradient></defs><g id="a5e3f1ac-3d76-4371-8d57-c257738930b7" data-name="Layer 2"><g id="b6ad139b-1514-4590-bdad-06bb66a21e01" data-name="OBJECTS"><path d="M48.1,43.78c2.42-1.8,3.2-5.28.52-7.46-3-2.34-8.3-3.33-11.91-3.41a18.56,18.56,0,0,0-8,1.82c-1.65.86-3,1.69-.78,2.43,2.84.87,6.53,3.36,9.65,5.82S44.66,46.54,48.1,43.78Z" style="fill:url(#a07de5bc-d6f5-467e-b437-48b84e230248)"/><path d="M34.52,51.33c2.85,2.73,3.92.55,2.21-2.4-1.35-2.54-3.11-5.82-5.23-7.76-1.2-1.1-6.62-4-4.55-.12A33,33,0,0,0,34.52,51.33Z" style="fill:url(#f1ca40b3-5c2c-40c0-9209-ca07efdaefaf)"/><path d="M23.44,34.74c6.42-2.64,11-4.9,18.07-3.72,8.55,1.43,10.06,6.24,11.79,6.89,2,.7,3.59-.86,4.54-2.54,2.47-4.46,3-12,.47-18.41-3.24-8.1-9.79-12.79-17.86-15.3a31.69,31.69,0,0,0-22.34.8C12.58,4.73,7,8.17,3.15,14.58c-5.28,8.82-3.09,15.08.51,18.2C7.56,36.17,17.74,36.9,23.44,34.74Z" style="fill:url(#ad3fa4fe-8ff4-4bcd-82be-51c0ed096889)"/></g></g></svg>