<svg xmlns="http://www.w3.org/2000/svg" xmlns:xlink="http://www.w3.org/1999/xlink" viewBox="0 0 146.68 143.98"><defs><linearGradient id="ac46d23f-f624-45dc-a8e4-fdb69ee22c57" x1="18.05" y1="207.97" x2="49.02" y2="207.97" gradientTransform="translate(-34.58 -61.21) rotate(-27.97)" gradientUnits="userSpaceOnUse"><stop offset="0" stop-color="#8c16ef"/><stop offset="0.21" stop-color="#6458e8"/><stop offset="0.41" stop-color="#4193e2"/><stop offset="0.6" stop-color="#25c2dd"/><stop offset="0.77" stop-color="#11e3d9"/><stop offset="0.91" stop-color="#04f8d7"/><stop offset="1" stop-color="#00ffd6"/></linearGradient><linearGradient id="f0a707ba-a1e9-49af-9d4f-ad74270bcfd9" x1="-16.97" y1="830.3" x2="21.23" y2="830.3" gradientTransform="matrix(0.91, 0.42, -0.42, 0.91, 362.15, -738.17)" gradientUnits="userSpaceOnUse"><stop offset="0" stop-color="#b64fff"/><stop offset="0.12" stop-color="#c252f6"/><stop offset="0.49" stop-color="#e358dd"/><stop offset="0.79" stop-color="#f85cce"/><stop offset="1" stop-color="#ff5ec9"/></linearGradient><linearGradient id="ae330255-c98a-4960-973f-ce9920539142" x1="19.37" y1="11.91" x2="4.2" y2="11.91" gradientTransform="translate(33.91 52.52) rotate(-2.47)" xlink:href="#ac46d23f-f624-45dc-a8e4-fdb69ee22c57"/><linearGradient id="a48c5fc5-4e91-4d4a-8685-913d72d51d48" x1="7.42" y1="-4.65" x2="24.06" y2="-33.46" gradientTransform="translate(33.91 52.52) rotate(-2.47)" xlink:href="#ac46d23f-f624-45dc-a8e4-fdb69ee22c57"/><linearGradient id="b506ac68-60b0-4549-9e02-fccbde189b99" x1="47.43" y1="20.61" x2="37.07" y2="2.65" gradientTransform="translate(33.91 52.52) rotate(-2.47)" xlink:href="#ac46d23f-f624-45dc-a8e4-fdb69ee22c57"/><linearGradient id="bdc79949-c345-44a5-bc07-c4c634e79af2" x1="25.61" y1="5.72" x2="11.13" y2="5.72" gradientTransform="translate(33.91 52.52) rotate(-2.47)" xlink:href="#ac46d23f-f624-45dc-a8e4-fdb69ee22c57"/><linearGradient id="edd4a5cb-b1fd-4f00-932c-d247e74c36ba" x1="16" y1="69.86" x2="121.73" y2="69.86" gradientUnits="userSpaceOnUse"><stop offset="0" stop-color="#18074a"/><stop offset="0.28" stop-color="#1d0951"/><stop offset="0.68" stop-color="#2a0d66"/><stop offset="1" stop-color="#37117a"/></linearGradient><clipPath id="e4a8a852-aa21-4b4e-8643-5a1c116858dc" transform="translate(16 9.16)"><rect y="7.84" width="105.73" height="105.73" rx="20.93" style="fill:none"/></clipPath><clipPath id="a0f7466b-edc7-4c35-916f-a78c53b47e97" transform="translate(16 9.16)"><path d="M101.14,93.83a15.49,15.49,0,1,1-21.46,4.36A15.5,15.5,0,0,1,101.14,93.83Z" style="fill:url(#ac46d23f-f624-45dc-a8e4-fdb69ee22c57)"/></clipPath><linearGradient id="b1cf470f-9b10-4d21-8705-12efa8b22215" x1="13.8" y1="206.37" x2="53.11" y2="206.37" gradientTransform="translate(-34.58 -61.21) rotate(-27.97)" gradientUnits="userSpaceOnUse"><stop offset="0" stop-color="#8c16ef"/><stop offset="0.09" stop-color="#8621ee"/><stop offset="0.25" stop-color="#753deb"/><stop offset="0.46" stop-color="#596be6"/><stop offset="0.71" stop-color="#33aadf"/><stop offset="0.98" stop-color="#03fad7"/><stop offset="1" stop-color="#00ffd6"/></linearGradient><linearGradient id="b083c198-7a51-44d8-969a-9eee83ed85c7" x1="13.55" y1="191.98" x2="53.1" y2="191.98" xlink:href="#b1cf470f-9b10-4d21-8705-12efa8b22215"/><linearGradient id="acbf98a0-c80b-4452-b845-2230c231c712" x1="13.55" y1="222.35" x2="53.11" y2="222.35" xlink:href="#b1cf470f-9b10-4d21-8705-12efa8b22215"/><linearGradient id="e866c5b1-16c0-4855-8841-8e2712977db7" x1="-124.28" y1="859.83" x2="-106.99" y2="859.83" gradientTransform="translate(-564.06 -459.01) rotate(-56.46)" gradientUnits="userSpaceOnUse"><stop offset="0" stop-color="#9997ff"/><stop offset="0.99" stop-color="#ff7eff"/></linearGradient><clipPath id="e7d4a8e6-692e-4cb7-a68f-46370d9ccef5" transform="translate(16 9.16)"><circle cx="11.24" cy="14.36" r="19.1" transform="translate(-6.51 18.56) rotate(-65.25)" style="fill:url(#f0a707ba-a1e9-49af-9d4f-ad74270bcfd9)"/></clipPath><linearGradient id="a44afbd4-ecf8-45e0-8e9d-44024aa35fbb" x1="88.69" y1="123.45" x2="142.37" y2="123.45" gradientTransform="translate(-128.74 -89.39) rotate(-11.61)" xlink:href="#e866c5b1-16c0-4855-8841-8e2712977db7"/><linearGradient id="efd40ce0-9992-4363-b1d9-3b8cb07d430c" x1="94.36" y1="117.38" x2="131.68" y2="117.38" gradientTransform="translate(-128.74 -89.39) rotate(-11.61)" xlink:href="#e866c5b1-16c0-4855-8841-8e2712977db7"/><linearGradient id="b45d40d8-5c07-4cec-8829-9ec2f010fd98" x1="89.6" y1="141.77" x2="136.73" y2="141.77" gradientTransform="translate(-128.74 -89.39) rotate(-11.61)" xlink:href="#e866c5b1-16c0-4855-8841-8e2712977db7"/><linearGradient id="ba292c94-bd60-4eb5-990d-5f2f2422b675" x1="-16.97" y1="830.3" x2="4.36" y2="830.3" gradientTransform="translate(-525.27 -619.36) rotate(-40.1)" xlink:href="#e866c5b1-16c0-4855-8841-8e2712977db7"/><radialGradient id="fe4f8604-f523-4f55-93bc-3ff3ee131f99" cx="652.27" cy="-273.06" r="42.5" gradientTransform="matrix(-0.51, 0.86, 0.86, 0.51, 672.23, -354.96)" gradientUnits="userSpaceOnUse"><stop offset="0" stop-color="#4348ff"/><stop offset="1" stop-color="#0f1217"/></radialGradient><radialGradient id="f3b3ab93-3d45-4d51-905e-8a908ab58b1b" cx="709.57" cy="-319.2" r="42.5" xlink:href="#fe4f8604-f523-4f55-93bc-3ff3ee131f99"/><radialGradient id="e613b350-7f35-47c4-a7e5-ccdafd2ea549" cx="656.24" cy="-338.7" r="42.5" xlink:href="#fe4f8604-f523-4f55-93bc-3ff3ee131f99"/><linearGradient id="be468e2c-2b34-4907-9c10-05e1d17f25b3" x1="-25.98" y1="-27.74" x2="5.31" y2="-55.4" gradientTransform="translate(41.29 121.36) rotate(-1.37)" gradientUnits="userSpaceOnUse"><stop offset="0" stop-color="#ff10d5"/><stop offset="1" stop-color="#ffd492"/></linearGradient><linearGradient id="ed3e8574-13ab-422b-bf26-d8d83e878fcb" x1="-11.89" y1="-41.75" x2="4.1" y2="-55.88" xlink:href="#be468e2c-2b34-4907-9c10-05e1d17f25b3"/><clipPath id="f14852a4-270d-4f3f-8b62-1ab14d9df5b0" transform="translate(16 9.16)"><polygon points="47.28 56.19 38.45 60.3 48.85 71.47 53.76 63.16 47.28 56.19" style="fill:url(#ae330255-c98a-4960-973f-ce9920539142)"/></clipPath><clipPath id="eb0c4d08-5dba-4f50-96b3-17c5cfa6cf19" transform="translate(16 9.16)"><path d="M67.13,23.59l-15,2.52a16.07,16.07,0,0,0-7.76,3.61L31.13,41a.89.89,0,0,0,.57,1.56l23.86.28Z" style="fill:url(#a48c5fc5-4e91-4d4a-8685-913d72d51d48)"/></clipPath><clipPath id="ae85bf9b-5585-40a0-8655-b7a24557c12a" transform="translate(16 9.16)"><path d="M87.62,45.6,84,60.43a16.12,16.12,0,0,1-4.17,7.48L67.7,80.26a.89.89,0,0,1-1.52-.67l1.44-23.82Z" style="fill:url(#b506ac68-60b0-4549-9e02-fccbde189b99)"/></clipPath><clipPath id="e1bdbb79-16db-40b8-bbab-a71c194266e6" transform="translate(16 9.16)"><path d="M47.84,49.8l-2.4,4a1.72,1.72,0,0,0,.14,2.09l8.19,8.8a1.72,1.72,0,0,0,2.07.29L60,62.86Z" style="fill:url(#bdc79949-c345-44a5-bc07-c4c634e79af2)"/></clipPath><clipPath id="afc35da8-fc62-4e06-a8a4-a2301d2124d8" transform="translate(16 9.16)"><path d="M91,43.18c.18-.16.35-.32.51-.49,7.77-8,10.68-11.84,14.45-18.32a76.66,76.66,0,0,0,8.34-20.2c.64-2.84-.74-4.54-3.63-4.1A78,78,0,0,0,89.75,7C83,10.29,79,12.93,70.41,20.11L70,20.5c-1.69,1.62-16.75,14.85-22.15,26.94a2.44,2.44,0,0,0,.35,2.71l5.73,6.16.26.28,5.74,6.16a2.46,2.46,0,0,0,2.68.54C74.88,58.82,89,44.93,91,43.18Z" style="fill:#fff"/></clipPath><linearGradient id="ffff4f97-eae9-45e0-92d5-ed66d2cfed57" x1="63.74" y1="-40.89" x2="87.25" y2="-40.89" gradientTransform="translate(49.92 61.68) rotate(-2.47)" gradientUnits="userSpaceOnUse"><stop offset="0" stop-color="#8c16ef"/><stop offset="0.11" stop-color="#891bee"/><stop offset="0.24" stop-color="#8129ed"/><stop offset="0.38" stop-color="#733feb"/><stop offset="0.53" stop-color="#605fe7"/><stop offset="0.67" stop-color="#4789e3"/><stop offset="0.83" stop-color="#29bbdd"/><stop offset="0.98" stop-color="#06f6d7"/><stop offset="1" stop-color="#00ffd6"/></linearGradient><linearGradient id="bff3f526-1167-4c79-98f5-b90f35d5f3d9" x1="5.6" y1="2.27" x2="39.56" y2="2.27" gradientTransform="translate(33.91 52.52) rotate(-2.47)" gradientUnits="userSpaceOnUse"><stop offset="0.19" stop-color="#8c16ef"/><stop offset="0.27" stop-color="#881cee"/><stop offset="0.38" stop-color="#7e2ded"/><stop offset="0.5" stop-color="#6d49ea"/><stop offset="0.63" stop-color="#5670e5"/><stop offset="0.78" stop-color="#38a2e0"/><stop offset="0.93" stop-color="#14deda"/><stop offset="1" stop-color="#00ffd6"/></linearGradient><linearGradient id="ba6e965c-9e8d-4f07-b2c6-f2acd71abe9f" x1="42.39" y1="-23.28" x2="61.37" y2="-23.28" gradientTransform="translate(33.91 52.52) rotate(-2.47)" gradientUnits="userSpaceOnUse"><stop offset="0" stop-color="#8c16ef"/><stop offset="0.14" stop-color="#7c30ec"/><stop offset="0.43" stop-color="#5572e5"/><stop offset="0.86" stop-color="#15dbda"/><stop offset="1" stop-color="#00ffd6"/></linearGradient><linearGradient id="a90cc003-569a-4a0e-8caa-587c1bd861f5" x1="45.22" y1="-23.41" x2="58.32" y2="-23.41" gradientTransform="translate(33.91 52.52) rotate(-2.47)" gradientUnits="userSpaceOnUse"><stop offset="0" stop-color="#18074a"/><stop offset="0.15" stop-color="#210a58"/><stop offset="0.42" stop-color="#2d0e6b"/><stop offset="0.71" stop-color="#351076"/><stop offset="1" stop-color="#37117a"/></linearGradient></defs><g style="isolation:isolate"><g id="acc0d44a-b6d7-4b55-835a-2de0c608f9fc" data-name="Layer 2"><g id="a90cf401-1661-4657-a209-f959098736f7" data-name="OBJECTS"><rect x="16" y="17" width="105.73" height="105.73" rx="20.93" style="fill:url(#edd4a5cb-b1fd-4f00-932c-d247e74c36ba)"/><g style="clip-path:url(#e4a8a852-aa21-4b4e-8643-5a1c116858dc)"><g style="opacity:0.7000000000000001"><path d="M67.48,103.63a.51.51,0,1,1-.51-.51A.51.51,0,0,1,67.48,103.63Z" transform="translate(16 9.16)" style="fill:#f6fbf7;stroke:#4348ff;stroke-miterlimit:10;stroke-width:0.49302px"/><path d="M82.51,47.66a.51.51,0,1,1-.51-.51A.51.51,0,0,1,82.51,47.66Z" transform="translate(16 9.16)" style="fill:#f6fbf7;stroke:#4348ff;stroke-miterlimit:10;stroke-width:0.49302px"/><path d="M35.59,31.47a.51.51,0,0,1-1,0,.51.51,0,1,1,1,0Z" transform="translate(16 9.16)" style="fill:#f6fbf7;stroke:#4348ff;stroke-miterlimit:10;stroke-width:0.49302px"/><path d="M98.63,107.77a.51.51,0,0,1-1,0,.51.51,0,0,1,1,0Z" transform="translate(16 9.16)" style="fill:#f6fbf7;stroke:#4348ff;stroke-miterlimit:10;stroke-width:0.49302px"/><path d="M41.85,47.94a.34.34,0,0,1-.34.34.35.35,0,1,1,0-.69A.34.34,0,0,1,41.85,47.94Z" transform="translate(16 9.16)" style="fill:#f6fbf7;stroke:#4348ff;stroke-miterlimit:10;stroke-width:0.49302px"/><path d="M11.69,53a.35.35,0,0,1-.35.34A.34.34,0,0,1,11,53a.35.35,0,0,1,.34-.35A.35.35,0,0,1,11.69,53Z" transform="translate(16 9.16)" style="fill:#f6fbf7;stroke:#4348ff;stroke-miterlimit:10;stroke-width:0.49302px"/><circle cx="73.76" cy="41.67" r="0.35" style="fill:#f6fbf7;stroke:#4348ff;stroke-miterlimit:10;stroke-width:0.49302px"/><path d="M75.21,11.09a.35.35,0,0,1-.35.35.35.35,0,0,1,0-.7A.35.35,0,0,1,75.21,11.09Z" transform="translate(16 9.16)" style="fill:#f6fbf7;stroke:#4348ff;stroke-miterlimit:10;stroke-width:0.49302px"/><path d="M36.41,14.14a.35.35,0,0,1-.35.35.35.35,0,0,1-.34-.35.34.34,0,0,1,.34-.34A.35.35,0,0,1,36.41,14.14Z" transform="translate(16 9.16)" style="fill:#f6fbf7;stroke:#4348ff;stroke-miterlimit:10;stroke-width:0.49302px"/><path d="M5.59,32.17a.18.18,0,0,1-.36,0,.18.18,0,1,1,.36,0Z" transform="translate(16 9.16)" style="fill:#f6fbf7;stroke:#4348ff;stroke-miterlimit:10;stroke-width:0.49302px"/><path d="M16.33,11.5a.18.18,0,1,1-.36,0,.18.18,0,1,1,.36,0Z" transform="translate(16 9.16)" style="fill:#f6fbf7;stroke:#4348ff;stroke-miterlimit:10;stroke-width:0.49302px"/><path d="M100.15,69.58a.19.19,0,0,1-.18.19.2.2,0,0,1-.19-.19.19.19,0,0,1,.19-.18A.18.18,0,0,1,100.15,69.58Z" transform="translate(16 9.16)" style="fill:#f6fbf7;stroke:#4348ff;stroke-miterlimit:10;stroke-width:0.49302px"/><path d="M99.62,53.36a.35.35,0,1,1-.69,0,.35.35,0,0,1,.69,0Z" transform="translate(16 9.16)" style="fill:#f6fbf7;stroke:#4348ff;stroke-miterlimit:10;stroke-width:0.49302px"/><circle cx="74.1" cy="83.13" r="0.35" style="fill:#f6fbf7;stroke:#4348ff;stroke-miterlimit:10;stroke-width:0.49302px"/><path d="M100,18.46a.35.35,0,0,1-.7,0,.35.35,0,0,1,.7,0Z" transform="translate(16 9.16)" style="fill:#f6fbf7;stroke:#4348ff;stroke-miterlimit:10;stroke-width:0.49302px"/></g><circle cx="92.58" cy="106.74" r="20.17" transform="translate(-28.88 148.6) rotate(-62.45)" style="fill:#fff;opacity:0.05;mix-blend-mode:screen"/><path d="M101.14,93.83a15.49,15.49,0,1,1-21.46,4.36A15.5,15.5,0,0,1,101.14,93.83Z" transform="translate(16 9.16)" style="fill:url(#ac46d23f-f624-45dc-a8e4-fdb69ee22c57)"/><g style="clip-path:url(#a0f7466b-edc7-4c35-916f-a78c53b47e97)"><path d="M71.19,108.54s3.3-4.84,18.08-3.81,13.91-15.15,13.91-15.15l4.41,3.7s2.12,18.11-14.93,16.78-11.47,10.65-11.47,10.65Z" transform="translate(16 9.16)" style="fill:url(#b1cf470f-9b10-4d21-8705-12efa8b22215)"/><path d="M67,101.14s1.31-11.35,16.09-10.32S96.43,76.87,96.43,76.87l4.41,3.7S103,98.68,85.91,97.35,74.44,108,74.44,108Z" transform="translate(16 9.16)" style="fill:url(#b083c198-7a51-44d8-969a-9eee83ed85c7)"/><path d="M81.22,128s.89-14.13,15.67-13.11,13.78-11.16,13.78-11.16l4.41,3.7s2.13,18.12-14.93,16.78-11.46,10.65-11.46,10.65Z" transform="translate(16 9.16)" style="fill:url(#acbf98a0-c80b-4452-b845-2230c231c712)"/></g><path d="M86,116.64a15.48,15.48,0,0,1-5.26-19.9,15.48,15.48,0,1,0,24.73,18.55,14.31,14.31,0,0,0,.9-1.56A15.47,15.47,0,0,1,86,116.64Z" transform="translate(16 9.16)" style="opacity:0.5;mix-blend-mode:multiply;fill:url(#e866c5b1-16c0-4855-8841-8e2712977db7)"/><circle cx="11.43" cy="14.52" r="23.69" transform="translate(10.28 16.79) rotate(-29.92)" style="fill:#fff;opacity:0.05;mix-blend-mode:screen"/><circle cx="11.24" cy="14.36" r="19.1" transform="translate(9.49 27.72) rotate(-65.25)" style="fill:url(#f0a707ba-a1e9-49af-9d4f-ad74270bcfd9)"/><g style="clip-path:url(#e7d4a8e6-692e-4cb7-a68f-46370d9ccef5)"><path d="M-16,18.61s5.27-8.7,22.45-7.47,29-13.57,19.89-18L34.89-.41l-3.05,11.1S19,19.1,5.71,15s-16.78,9.07-16.78,9.07Z" transform="translate(16 9.16)" style="opacity:0.5;mix-blend-mode:multiply;fill:url(#a44afbd4-ecf8-45e0-8e9d-44024aa35fbb)"/><path d="M-9.54,8.16S-1-.34,6,2.41c12.87,5,20.5,1.26,16.89-6.4l-2.76-.45s1.15,6.76-12.8,4C-.22-1.9-4.87,1.35-7.94,3.75-16.8,10.7-9.54,8.16-9.54,8.16Z" transform="translate(16 9.16)" style="opacity:0.5;mix-blend-mode:multiply;fill:url(#efd40ce0-9992-4363-b1d9-3b8cb07d430c)"/><path d="M33.12,19S22.31,27,8.28,23.8s-21.13,5.62-21.13,5.62l5.44,1s5-5.23,14.49-2,20.16,2.1,24.9-2.7Z" transform="translate(16 9.16)" style="opacity:0.5;mix-blend-mode:multiply;fill:url(#b45d40d8-5c07-4cec-8829-9ec2f010fd98)"/></g><path d="M1.51,22.16C-4.8,14.67-5.83,5.39.72-1.58A20.58,20.58,0,0,0-1.06-.25,19.1,19.1,0,1,0,23.55,29a19.48,19.48,0,0,0,1.61-1.53C17.19,32.72,7.82,29.66,1.51,22.16Z" transform="translate(16 9.16)" style="opacity:0.5;mix-blend-mode:multiply;fill:url(#ba292c94-bd60-4eb5-990d-5f2f2422b675)"/><line x1="146.66" y1="38.67" x2="78.41" y2="102.74" style="fill:url(#fe4f8604-f523-4f55-93bc-3ff3ee131f99)"/><g style="mix-blend-mode:color-dodge"><path d="M62.38,93.55c-2.08-2.22-.85-3.89,35.3-35.52,20.48-17.91,32-29.54,32.95-28.55S118.74,40.37,99.81,60.3C66.58,95.31,64.06,95.34,62.38,93.55Z" transform="translate(16 9.16)"/><path d="M62.44,93.5c-2-2.16-.81-3.83,34.21-34.47,19.86-17.38,31.08-28.65,32-27.68S117.12,41.94,98.76,61.28C66.56,95.2,64.08,95.25,62.44,93.5Z" transform="translate(16 9.16)" style="fill:#020100"/><path d="M62.49,93.45c-2-2.1-.77-3.76,33.13-33.42,19.25-16.85,30.14-27.76,31-26.81s-11.14,10.3-28.94,29C66.53,95.09,64.09,95.16,62.49,93.45Z" transform="translate(16 9.16)" style="fill:#090302"/><path d="M62.55,93.41c-1.93-2.06-.74-3.7,32-32.39,18.63-16.3,29.2-26.87,30.07-25.93s-10.77,10-28,28.14C66.51,95,64.1,95.06,62.55,93.41Z" transform="translate(16 9.16)" style="fill:#150704"/><path d="M62.6,93.36c-1.87-2-.7-3.63,31-31.34,18-15.77,28.25-26,29.11-25.06s-10.4,9.72-27.06,27.24C66.49,94.86,64.12,95,62.6,93.36Z" transform="translate(16 9.16)" style="fill:#1f0d08"/><path d="M62.65,93.31C60.83,91.37,62,89.74,92.53,63c17.4-15.24,27.31-25.09,28.15-24.19s-10,9.42-26.12,26.35C66.47,94.75,64.13,94.88,62.65,93.31Z" transform="translate(16 9.16)" style="fill:#29130d"/><path d="M62.71,93.26c-1.77-1.88-.62-3.5,28.79-29.25,16.78-14.69,26.37-24.2,27.2-23.31S109,49.83,93.51,66.16C66.45,94.64,64.14,94.79,62.71,93.26Z" transform="translate(16 9.16)" style="fill:#331911"/><path d="M62.76,93.21c-1.71-1.82-.58-3.43,27.71-28.2,16.16-14.16,25.42-23.31,26.24-22.45s-9.29,8.85-24.25,24.57C66.43,94.52,64.15,94.69,62.76,93.21Z" transform="translate(16 9.16)" style="fill:#3d2016"/><path d="M62.81,93.16C61.16,91.4,62.27,89.8,89.44,66,105,52.38,113.92,43.59,114.72,44.43S105.81,53,91.41,68.11C66.4,94.41,64.17,94.6,62.81,93.16Z" transform="translate(16 9.16)" style="fill:#47261c"/><path d="M62.87,93.11c-1.6-1.7-.51-3.3,25.54-26.11C103.34,53.92,112,45.47,112.73,46.3s-8.54,8.26-22.37,22.78C66.38,94.3,64.18,94.51,62.87,93.11Z" transform="translate(16 9.16)" style="fill:#502b21"/><path d="M62.92,93.06c-1.55-1.65-.46-3.23,24.46-25.06,14.31-12.55,22.6-20.64,23.36-19.83s-8.17,8-21.43,21.89C66.36,94.18,64.19,94.42,62.92,93.06Z" transform="translate(16 9.16)" style="fill:#5a3125"/><path d="M63,93c-1.49-1.6-.42-3.17,23.38-24,13.7-12,21.65-19.75,22.4-19S101,57.72,88.26,71C66.34,94.07,64.21,94.33,63,93Z" transform="translate(16 9.16)" style="fill:#63362a"/><path d="M63,93c-1.44-1.54-.39-3.1,22.29-23C98.4,58.52,106,51.13,106.76,51.91S99.34,59.29,87.21,72C66.32,94,64.22,94.23,63,93Z" transform="translate(16 9.16)" style="fill:#6d3d2e"/><path d="M63.08,92.92c-1.38-1.48-.35-3,21.21-21.93,12.46-10.94,19.77-18,20.48-17.21s-7,7.09-18.61,19.2C66.3,93.84,64.23,94.14,63.08,92.92Z" transform="translate(16 9.16)" style="fill:#764233"/><path d="M63.14,92.87c-1.34-1.42-.31-3,20.12-20.89,11.85-10.4,18.83-17.07,19.52-16.33S96.11,62.45,85.11,74C66.27,93.73,64.25,94.05,63.14,92.87Z" transform="translate(16 9.16)" style="fill:#7f4837"/><path d="M63.19,92.82c-1.28-1.36-.27-2.9,19-19.84,11.23-9.86,17.88-16.19,18.56-15.46S94.49,64,84.06,74.93C66.25,93.62,64.26,94,63.19,92.82Z" transform="translate(16 9.16)" style="fill:#884d3c"/><path d="M63.24,92.77C62,91.47,63,89.94,81.2,74c10.61-9.33,16.94-15.3,17.6-14.59S92.87,65.6,83,75.91C66.23,93.51,64.27,93.87,63.24,92.77Z" transform="translate(16 9.16)" style="fill:#925340"/><path d="M63.3,92.72C62.13,91.47,63.1,90,80.17,75c10-8.79,16-14.4,16.65-13.71S91.26,67.18,82,76.88C66.21,93.39,64.28,93.77,63.3,92.72Z" transform="translate(16 9.16)" style="fill:#9b5945"/><path d="M63.35,92.67C62.23,91.48,63.19,90,79.14,76c9.38-8.25,15.06-13.52,15.69-12.85s-5.19,5.64-13.92,14.74C66.19,93.28,64.3,93.68,63.35,92.67Z" transform="translate(16 9.16)" style="fill:#a45e49"/><path d="M63.4,92.63C62.34,91.49,63.29,90,78.11,77c8.76-7.72,14.11-12.63,14.73-12s-4.82,5.34-13,13.84C66.17,93.17,64.31,93.59,63.4,92.63Z" transform="translate(16 9.16)" style="fill:#ad634d"/><path d="M63.46,92.58C62.45,91.5,63.38,90,77.08,78c8.15-7.18,13.17-11.73,13.77-11.1s-4.44,5-12,13C66.14,93.05,64.32,93.5,63.46,92.58Z" transform="translate(16 9.16)" style="fill:#b76952"/><path d="M63.51,92.53c-.95-1,0-2.5,12.54-13.57,7.53-6.64,12.23-10.85,12.81-10.23s-4.07,4.76-11.1,12C66.12,92.94,64.34,93.41,63.51,92.53Z" transform="translate(16 9.16)" style="fill:#bf6f56"/><path d="M63.57,92.48c-.91-1,0-2.44,11.45-12.52,6.91-6.11,11.28-10,11.85-9.36s-3.7,4.47-10.16,11.16C66.1,92.83,64.35,93.31,63.57,92.48Z" transform="translate(16 9.16)" style="fill:#c8745a"/><path d="M63.62,92.43c-.85-.9,0-2.37,10.37-11.48,6.3-5.57,10.34-9.06,10.89-8.48s-3.32,4.17-9.22,10.26C66.08,92.72,64.36,93.22,63.62,92.43Z" transform="translate(16 9.16)" style="fill:#d1795f"/><path d="M63.67,92.38c-.79-.84.08-2.3,9.29-10.43,5.68-5,9.4-8.18,9.93-7.61s-3,3.88-8.28,9.37C66.06,92.6,64.38,93.13,63.67,92.38Z" transform="translate(16 9.16)" style="fill:#d97e64"/><path d="M63.73,92.33c-.74-.79.11-2.23,8.2-9.38,5.06-4.5,8.46-7.29,9-6.74s-2.58,3.59-7.34,8.48C66,92.49,64.39,93,63.73,92.33Z" transform="translate(16 9.16)" style="fill:#e38468"/><path d="M63.78,92.28c-.69-.73.15-2.17,7.12-8.34,4.45-4,7.51-6.4,8-5.86s-2.21,3.28-6.4,7.58C66,92.36,64.4,93,63.78,92.28Z" transform="translate(16 9.16)" style="fill:#ec896d"/><path d="M63.83,92.24c-.63-.68.2-2.11,6-7.3,3.83-3.42,6.57-5.51,7-5s-1.84,3-5.46,6.69C66,92.25,64.41,92.85,63.83,92.24Z" transform="translate(16 9.16)" style="fill:#f48e71"/><path d="M63.89,92.19c-.58-.62.23-2,5-6.25,3.21-2.89,5.63-4.62,6.1-4.12s-1.48,2.7-4.53,5.79C66,92.14,64.43,92.76,63.89,92.19Z" transform="translate(16 9.16)" style="fill:#fd9375"/><path d="M63.94,92.14c-.52-.56.27-2,3.87-5.21C70.4,84.58,72.5,83.2,73,83.68s-1.1,2.42-3.59,4.91C65.94,92,64.44,92.67,63.94,92.14Z" transform="translate(16 9.16)" style="fill:#ff9a79"/><path d="M64,92.09c-.48-.5.3-1.91,2.78-4.16,2-1.81,3.74-2.84,4.18-2.38s-.73,2.13-2.65,4C65.92,91.92,64.45,92.58,64,92.09Z" transform="translate(16 9.16)" style="fill:#ff9f7d"/><path d="M64.05,92c-.42-.44.34-1.84,1.7-3.11s2.8-2,3.22-1.51-.35,1.84-1.71,3.12S64.47,92.49,64.05,92Z" transform="translate(16 9.16)" style="fill:#ffa482"/></g><line x1="77.75" y1="64.44" x2="9.51" y2="128.51" style="fill:url(#f3b3ab93-3d45-4d51-905e-8a908ab58b1b)"/><g style="mix-blend-mode:color-dodge"><path d="M-6.52,119.32c-2.09-2.22-.85-3.9,35.29-35.52,20.48-17.92,32-29.54,33-28.55S49.83,66.14,30.91,86.07C-2.33,121.08-4.84,121.11-6.52,119.32Z" transform="translate(16 9.16)"/><path d="M-6.47,119.27c-2-2.16-.81-3.83,34.21-34.47,19.87-17.38,31.08-28.65,32-27.68S48.22,67.71,29.86,87.05C-2.35,121-4.83,121-6.47,119.27Z" transform="translate(16 9.16)" style="fill:#020100"/><path d="M-6.41,119.22c-2-2.11-.78-3.76,33.12-33.43C46,69,56.85,58,57.75,59S46.6,69.29,28.81,88C-2.37,120.86-4.82,120.92-6.41,119.22Z" transform="translate(16 9.16)" style="fill:#090302"/><path d="M-6.36,119.17c-1.93-2-.74-3.69,32-32.38,18.63-16.31,29.2-26.87,30.08-25.93S45,70.87,27.76,89C-2.39,120.74-4.8,120.83-6.36,119.17Z" transform="translate(16 9.16)" style="fill:#150704"/><path d="M-6.31,119.13c-1.87-2-.69-3.63,31-31.34,18-15.77,28.26-26,29.12-25.06S43.37,72.44,26.71,90C-2.42,120.63-4.79,120.74-6.31,119.13Z" transform="translate(16 9.16)" style="fill:#1f0d08"/><path d="M-6.25,119.08c-1.82-1.94-.66-3.57,29.87-30.3C41,73.55,50.93,63.7,51.78,64.6S41.75,74,25.66,91C-2.44,120.52-4.78,120.65-6.25,119.08Z" transform="translate(16 9.16)" style="fill:#29130d"/><path d="M-6.2,119c-1.76-1.88-.62-3.5,28.79-29.25C39.37,75.09,49,65.58,49.79,66.46S40.13,75.6,24.61,91.92C-2.46,120.4-4.76,120.56-6.2,119Z" transform="translate(16 9.16)" style="fill:#331911"/><path d="M-6.15,119c-1.71-1.82-.58-3.43,27.71-28.2C37.73,76.62,47,67.47,47.8,68.33S38.52,77.18,23.56,92.9C-2.48,120.29-4.75,120.46-6.15,119Z" transform="translate(16 9.16)" style="fill:#3d2016"/><path d="M-6.09,118.93c-1.66-1.76-.54-3.36,26.63-27.16C36.08,78.15,45,69.36,45.81,70.2s-8.91,8.55-23.3,23.67C-2.5,120.18-4.74,120.37-6.09,118.93Z" transform="translate(16 9.16)" style="fill:#47261c"/><path d="M-6,118.88c-1.6-1.71-.5-3.3,25.55-26.11C34.43,79.69,43,71.24,43.82,72.07s-8.54,8.26-22.36,22.78C-2.52,120.07-4.73,120.28-6,118.88Z" transform="translate(16 9.16)" style="fill:#502b21"/><path d="M-6,118.83c-1.55-1.65-.47-3.23,24.46-25.06C32.79,81.22,41.07,73.13,41.83,73.94s-8.16,8-21.42,21.89C-2.55,120-4.71,120.19-6,118.83Z" transform="translate(16 9.16)" style="fill:#5a3125"/><path d="M-5.93,118.78c-1.5-1.59-.43-3.16,23.38-24,13.69-12,21.65-19.75,22.39-19s-7.79,7.68-20.48,21C-2.57,119.84-4.7,120.1-5.93,118.78Z" transform="translate(16 9.16)" style="fill:#63362a"/><path d="M-5.88,118.74c-1.44-1.54-.39-3.1,22.3-23C29.49,84.29,37.13,76.9,37.85,77.68s-7.42,7.38-19.54,20.1C-2.59,119.73-4.69,120-5.88,118.74Z" transform="translate(16 9.16)" style="fill:#6d3d2e"/><path d="M-5.82,118.69c-1.39-1.48-.35-3,21.21-21.93,12.46-10.94,19.76-18,20.48-17.21s-7,7.09-18.61,19.2C-2.61,119.61-4.67,119.91-5.82,118.69Z" transform="translate(16 9.16)" style="fill:#764233"/><path d="M-5.77,118.64c-1.33-1.42-.31-3,20.13-20.89C26.2,87.35,33.18,80.67,33.88,81.42s-6.68,6.8-17.67,18.31C-2.63,119.5-4.66,119.82-5.77,118.64Z" transform="translate(16 9.16)" style="fill:#7f4837"/><path d="M-5.72,118.59C-7,117.23-6,115.69,13.33,98.75c11.22-9.86,17.88-16.19,18.56-15.46s-6.31,6.5-16.73,17.41C-2.65,119.39-4.65,119.73-5.72,118.59Z" transform="translate(16 9.16)" style="fill:#884d3c"/><path d="M-5.66,118.54c-1.23-1.3-.24-2.83,18-18.79,10.61-9.33,16.93-15.3,17.6-14.59S24,91.37,14.11,101.68C-2.68,119.28-4.63,119.64-5.66,118.54Z" transform="translate(16 9.16)" style="fill:#925340"/><path d="M-5.61,118.49c-1.17-1.25-.19-2.77,16.88-17.75,10-8.79,16-14.41,16.64-13.72S22.35,93,13.06,102.65C-2.7,119.16-4.62,119.54-5.61,118.49Z" transform="translate(16 9.16)" style="fill:#9b5945"/><path d="M-5.56,118.44c-1.11-1.19-.15-2.7,15.8-16.7,9.37-8.25,15.05-13.52,15.68-12.85S20.73,94.53,12,103.63C-2.72,119.05-4.61,119.45-5.56,118.44Z" transform="translate(16 9.16)" style="fill:#a45e49"/><path d="M-5.5,118.39c-1.07-1.13-.12-2.63,14.71-15.65C18,95,23.32,90.11,23.93,90.76S19.12,96.1,11,104.6C-2.74,118.94-4.6,119.36-5.5,118.39Z" transform="translate(16 9.16)" style="fill:#ad634d"/><path d="M-5.45,118.35c-1-1.08-.08-2.57,13.63-14.62C16.32,96.55,21.34,92,21.94,92.63s-4.44,5.05-12,13C-2.76,118.82-4.58,119.27-5.45,118.35Z" transform="translate(16 9.16)" style="fill:#b76952"/><path d="M-5.39,118.3c-1-1,0-2.51,12.54-13.57C14.67,98.09,19.37,93.88,20,94.5s-4.07,4.76-11.09,12C-2.78,118.71-4.57,119.17-5.39,118.3Z" transform="translate(16 9.16)" style="fill:#bf6f56"/><path d="M-5.34,118.25c-.9-1,0-2.44,11.46-12.52C13,99.62,17.4,95.77,18,96.37s-3.69,4.47-10.15,11.16C-2.81,118.6-4.56,119.08-5.34,118.25Z" transform="translate(16 9.16)" style="fill:#c8745a"/><path d="M-5.29,118.2c-.85-.9,0-2.37,10.38-11.48,6.29-5.57,10.34-9.07,10.89-8.48s-3.33,4.17-9.22,10.26C-2.83,118.48-4.54,119-5.29,118.2Z" transform="translate(16 9.16)" style="fill:#d1795f"/><path d="M-5.23,118.15c-.8-.85.07-2.3,9.29-10.43,5.67-5,9.39-8.18,9.93-7.61s-3,3.88-8.28,9.37C-2.85,118.37-4.53,118.9-5.23,118.15Z" transform="translate(16 9.16)" style="fill:#d97e64"/><path d="M-5.18,118.1c-.74-.79.11-2.23,8.21-9.38,5.06-4.5,8.45-7.29,9-6.74s-2.58,3.59-7.34,8.47C-2.87,118.26-4.52,118.81-5.18,118.1Z" transform="translate(16 9.16)" style="fill:#e38468"/><path d="M-5.13,118.05c-.68-.73.16-2.17,7.13-8.34,4.44-4,7.51-6.4,8-5.86s-2.22,3.28-6.4,7.58C-2.91,118.13-4.5,118.71-5.13,118.05Z" transform="translate(16 9.16)" style="fill:#ec896d"/><path d="M-5.07,118c-.63-.67.19-2.1,6-7.29,3.82-3.42,6.57-5.51,7.05-5s-1.85,3-5.46,6.69C-2.93,118-4.49,118.62-5.07,118Z" transform="translate(16 9.16)" style="fill:#f48e71"/><path d="M-5,118c-.58-.62.23-2,5-6.25,3.21-2.89,5.62-4.62,6.09-4.13s-1.47,2.71-4.52,5.8C-2.95,117.9-4.48,118.53-5,118Z" transform="translate(16 9.16)" style="fill:#fd9375"/><path d="M-5,117.91c-.53-.56.26-2,3.87-5.21C1.5,110.35,3.59,109,4,109.45s-1.1,2.42-3.58,4.91C-3,117.79-4.47,118.44-5,117.91Z" transform="translate(16 9.16)" style="fill:#ff9a79"/><path d="M-4.91,117.86c-.47-.5.31-1.91,2.79-4.16,2-1.81,3.74-2.84,4.17-2.38s-.72,2.13-2.64,4C-3,117.68-4.45,118.35-4.91,117.86Z" transform="translate(16 9.16)" style="fill:#ff9f7d"/><path d="M-4.86,117.81c-.41-.45.35-1.84,1.71-3.11s2.79-2,3.21-1.51-.34,1.84-1.7,3.12S-4.44,118.25-4.86,117.81Z" transform="translate(16 9.16)" style="fill:#ffa482"/></g><line x1="88.16" y1="8.62" x2="19.92" y2="72.69" style="fill:url(#e613b350-7f35-47c4-a7e5-ccdafd2ea549)"/><g style="mix-blend-mode:color-dodge"><path d="M3.89,63.5C1.8,61.28,3,59.61,39.19,28c20.48-17.91,32-29.54,33-28.55S60.24,10.32,41.32,30.25C8.08,65.26,5.57,65.29,3.89,63.5Z" transform="translate(16 9.16)"/><path d="M3.94,63.45c-2-2.16-.81-3.83,34.22-34.47C58,11.6,69.24.33,70.15,1.3S58.63,11.89,40.27,31.23C8.06,65.15,5.58,65.2,3.94,63.45Z" transform="translate(16 9.16)" style="fill:#020100"/><path d="M4,63.4C2,61.29,3.22,59.64,37.13,30c19.24-16.85,30.13-27.76,31-26.81S57,13.47,39.22,32.2C8,65,5.59,65.1,4,63.4Z" transform="translate(16 9.16)" style="fill:#090302"/><path d="M4.05,63.35C2.13,61.3,3.32,59.66,36.1,31,54.73,14.67,65.29,4.1,66.17,5s-10.78,10-28,28.14C8,64.92,5.61,65,4.05,63.35Z" transform="translate(16 9.16)" style="fill:#150704"/><path d="M4.1,63.31c-1.87-2-.69-3.63,31-31.34C53.08,16.2,63.32,6,64.18,6.91s-10.4,9.72-27.06,27.24C8,64.81,5.62,64.92,4.1,63.31Z" transform="translate(16 9.16)" style="fill:#1f0d08"/><path d="M4.16,63.26C2.34,61.32,3.5,59.69,34,33,51.43,17.73,61.35,7.88,62.19,8.78s-10,9.42-26.12,26.35C8,64.7,5.63,64.83,4.16,63.26Z" transform="translate(16 9.16)" style="fill:#29130d"/><path d="M4.21,63.21C2.45,61.33,3.59,59.71,33,34,49.79,19.27,59.37,9.76,60.2,10.65S50.55,19.78,35,36.11C8,64.59,5.65,64.74,4.21,63.21Z" transform="translate(16 9.16)" style="fill:#331911"/><path d="M4.27,63.16C2.56,61.34,3.68,59.73,32,35,48.14,20.8,57.4,11.65,58.21,12.51S48.93,21.36,34,37.08C7.93,64.47,5.66,64.64,4.27,63.16Z" transform="translate(16 9.16)" style="fill:#3d2016"/><path d="M4.32,63.11C2.66,61.35,3.78,59.75,31,36,46.49,22.33,55.43,13.54,56.22,14.38s-8.91,8.55-23.3,23.68C7.91,64.36,5.67,64.55,4.32,63.11Z" transform="translate(16 9.16)" style="fill:#47261c"/><path d="M4.37,63.06c-1.6-1.7-.5-3.3,25.55-26.11,14.93-13.08,23.53-21.53,24.31-20.7S45.7,24.51,31.87,39C7.89,64.25,5.69,64.46,4.37,63.06Z" transform="translate(16 9.16)" style="fill:#502b21"/><path d="M4.43,63C2.88,61.36,4,59.78,28.89,38,43.2,25.4,51.48,17.31,52.24,18.12s-8.16,8-21.42,21.89C7.87,64.13,5.7,64.37,4.43,63Z" transform="translate(16 9.16)" style="fill:#5a3125"/><path d="M4.48,63c-1.49-1.6-.43-3.17,23.38-24C41.55,26.93,49.51,19.2,50.26,20s-7.8,7.68-20.49,21C7.84,64,5.71,64.28,4.48,63Z" transform="translate(16 9.16)" style="fill:#63362a"/><path d="M4.53,62.92c-1.44-1.54-.38-3.1,22.3-23C39.91,28.47,47.54,21.08,48.27,21.86S40.85,29.24,28.72,42C7.82,63.91,5.72,64.18,4.53,62.92Z" transform="translate(16 9.16)" style="fill:#6d3d2e"/><path d="M4.59,62.87c-1.39-1.48-.35-3,21.21-21.93C38.26,30,45.56,23,46.28,23.73s-7.05,7.09-18.61,19.2C7.8,63.79,5.74,64.09,4.59,62.87Z" transform="translate(16 9.16)" style="fill:#764233"/><path d="M4.64,62.82c-1.33-1.42-.31-3,20.13-20.89C36.61,31.53,43.59,24.86,44.29,25.6s-6.68,6.8-17.67,18.31C7.78,63.68,5.75,64,4.64,62.82Z" transform="translate(16 9.16)" style="fill:#7f4837"/><path d="M4.7,62.77c-1.28-1.36-.28-2.9,19-19.84C35,33.07,41.62,26.74,42.3,27.47S36,34,25.57,44.88C7.76,63.57,5.76,63.91,4.7,62.77Z" transform="translate(16 9.16)" style="fill:#884d3c"/><path d="M4.75,62.72c-1.23-1.3-.23-2.83,18-18.79,10.61-9.33,16.94-15.3,17.6-14.59s-5.93,6.21-15.79,16.52C7.74,63.46,5.78,63.82,4.75,62.72Z" transform="translate(16 9.16)" style="fill:#925340"/><path d="M4.8,62.67c-1.17-1.25-.19-2.76,16.88-17.75,10-8.79,16-14.4,16.64-13.71s-5.56,5.92-14.85,15.62C7.71,63.34,5.79,63.72,4.8,62.67Z" transform="translate(16 9.16)" style="fill:#9b5945"/><path d="M4.86,62.62c-1.12-1.19-.16-2.7,15.79-16.7C30,37.67,35.7,32.4,36.33,33.07s-5.18,5.64-13.91,14.74C7.69,63.23,5.8,63.63,4.86,62.62Z" transform="translate(16 9.16)" style="fill:#a45e49"/><path d="M4.91,62.58c-1.06-1.14-.12-2.64,14.71-15.66,8.76-7.72,14.11-12.63,14.72-12s-4.81,5.34-13,13.84C7.67,63.12,5.82,63.54,4.91,62.58Z" transform="translate(16 9.16)" style="fill:#ad634d"/><path d="M5,62.53C4,61.45,4.88,60,18.59,47.91c8.14-7.18,13.17-11.73,13.76-11.1s-4.44,5-12,12.95C7.65,63,5.83,63.45,5,62.53Z" transform="translate(16 9.16)" style="fill:#b76952"/><path d="M5,62.48c-1-1,0-2.5,12.54-13.57,7.52-6.64,12.22-10.85,12.81-10.23s-4.07,4.76-11.1,12C7.63,62.89,5.84,63.36,5,62.48Z" transform="translate(16 9.16)" style="fill:#bf6f56"/><path d="M5.07,62.43c-.9-1,0-2.44,11.46-12.52,6.91-6.11,11.28-10,11.85-9.36S24.68,45,18.22,51.71C7.61,62.78,5.86,63.26,5.07,62.43Z" transform="translate(16 9.16)" style="fill:#c8745a"/><path d="M5.13,62.38c-.85-.9,0-2.37,10.37-11.48,6.29-5.57,10.34-9.07,10.89-8.48s-3.33,4.17-9.22,10.26C7.58,62.67,5.87,63.17,5.13,62.38Z" transform="translate(16 9.16)" style="fill:#d1795f"/><path d="M5.18,62.33c-.8-.84.07-2.3,9.29-10.43,5.67-5,9.4-8.18,9.93-7.61s-2.95,3.88-8.28,9.37C7.56,62.55,5.88,63.08,5.18,62.33Z" transform="translate(16 9.16)" style="fill:#d97e64"/><path d="M5.23,62.28c-.74-.79.12-2.23,8.21-9.38,5.06-4.5,8.45-7.29,9-6.74s-2.58,3.59-7.34,8.47C7.54,62.44,5.89,63,5.23,62.28Z" transform="translate(16 9.16)" style="fill:#e38468"/><path d="M5.29,62.23c-.69-.73.15-2.17,7.12-8.34,4.44-4,7.51-6.4,8-5.86S18.2,51.31,14,55.61C7.5,62.31,5.91,62.9,5.29,62.23Z" transform="translate(16 9.16)" style="fill:#ec896d"/><path d="M5.34,62.19c-.63-.68.19-2.11,6-7.3,3.82-3.42,6.57-5.51,7-5s-1.85,3-5.46,6.69C7.48,62.2,5.92,62.8,5.34,62.19Z" transform="translate(16 9.16)" style="fill:#f48e71"/><path d="M5.39,62.14c-.58-.62.23-2,5-6.25C13.56,53,16,51.27,16.44,51.76s-1.47,2.71-4.52,5.8C7.46,62.08,5.93,62.71,5.39,62.14Z" transform="translate(16 9.16)" style="fill:#fd9375"/><path d="M5.45,62.09c-.53-.56.27-2,3.87-5.21,2.59-2.35,4.68-3.73,5.13-3.25s-1.1,2.42-3.58,4.91C7.44,62,6,62.62,5.45,62.09Z" transform="translate(16 9.16)" style="fill:#ff9a79"/><path d="M5.5,62c-.47-.5.31-1.91,2.79-4.16,2-1.81,3.74-2.84,4.17-2.38s-.72,2.13-2.64,4C7.42,61.87,6,62.53,5.5,62Z" transform="translate(16 9.16)" style="fill:#ff9f7d"/><path d="M5.55,62c-.41-.44.35-1.84,1.71-3.11s2.8-2,3.21-1.51-.34,1.84-1.7,3.12S6,62.44,5.55,62Z" transform="translate(16 9.16)" style="fill:#ffa482"/></g></g><path d="M40,59.72S15.74,72.11,13.2,98.64c0,0,23.8-3.22,36.33-28.76Z" transform="translate(16 9.16)" style="fill:url(#be468e2c-2b34-4907-9c10-05e1d17f25b3)"/><path d="M40.76,61.61s-11.9,6.33-13.5,20.11c0,0,10,.29,20.46-12.66Z" transform="translate(16 9.16)" style="mix-blend-mode:screen;fill:url(#ed3e8574-13ab-422b-bf26-d8d83e878fcb)"/><polygon points="63.28 65.35 54.46 69.46 64.85 80.63 69.76 72.31 63.28 65.35" style="fill:url(#ae330255-c98a-4960-973f-ce9920539142)"/><g style="clip-path:url(#f14852a4-270d-4f3f-8b62-1ab14d9df5b0)"><rect x="41.89" y="58.57" width="15.26" height="3.71" transform="translate(76.02 -7.83) rotate(47.06)" style="fill:#d8d8d8;opacity:0.42;mix-blend-mode:multiply"/></g><path d="M67.13,23.59l-15,2.52a16.07,16.07,0,0,0-7.76,3.61L31.13,41a.89.89,0,0,0,.57,1.56l23.86.28Z" transform="translate(16 9.16)" style="fill:url(#a48c5fc5-4e91-4d4a-8685-913d72d51d48)"/><g style="clip-path:url(#eb0c4d08-5dba-4f50-96b3-17c5cfa6cf19)"><path d="M65.44,20s-6.06,2.93-19.55,25.58l7.4-1.65,18-22Z" transform="translate(16 9.16)" style="fill:#d8d8d8;opacity:0.42;mix-blend-mode:multiply"/></g><path d="M87.62,45.6,84,60.43a16.12,16.12,0,0,1-4.17,7.48L67.7,80.26a.89.89,0,0,1-1.52-.67l1.44-23.82Z" transform="translate(16 9.16)" style="fill:url(#b506ac68-60b0-4549-9e02-fccbde189b99)"/><g style="clip-path:url(#ae85bf9b-5585-40a0-8655-b7a24557c12a)"><path d="M91.08,47.55s-3.35,5.84-26.91,17.66L66.35,58,89.56,41.58Z" transform="translate(16 9.16)" style="fill:#d8d8d8;opacity:0.42;mix-blend-mode:multiply"/></g><path d="M47.84,49.8l-2.4,4a1.72,1.72,0,0,0,.14,2.09l8.19,8.8a1.72,1.72,0,0,0,2.07.29L60,62.86Z" transform="translate(16 9.16)" style="fill:url(#bdc79949-c345-44a5-bc07-c4c634e79af2)"/><g style="clip-path:url(#e1bdbb79-16db-40b8-bbab-a71c194266e6)"><rect x="43.16" y="52.89" width="23.22" height="6.1" transform="translate(74.4 -13.11) rotate(47.06)" style="fill:#d8d8d8;opacity:0.42;mix-blend-mode:multiply"/></g><path d="M91,43.18c.18-.16.35-.32.51-.49,7.77-8,10.68-11.84,14.45-18.32a76.66,76.66,0,0,0,8.34-20.2c.64-2.84-.74-4.54-3.63-4.1A78,78,0,0,0,89.75,7C83,10.29,79,12.93,70.41,20.11L70,20.5c-1.69,1.62-16.75,14.85-22.15,26.94a2.44,2.44,0,0,0,.35,2.71l5.73,6.16.26.28,5.74,6.16a2.46,2.46,0,0,0,2.68.54C74.88,58.82,89,44.93,91,43.18Z" transform="translate(16 9.16)" style="fill:#fff"/><g style="clip-path:url(#afc35da8-fc62-4e06-a8a4-a2301d2124d8)"><polygon points="111.52 10.86 128.81 29.44 134.8 5.01 111.52 10.86" style="fill:url(#ffff4f97-eae9-45e0-92d5-ed66d2cfed57)"/><path d="M115.37-2.22S101.48,31.27,53.76,63.16L61.07,71l42.62-33.29L118.27-2Z" transform="translate(16 9.16)" style="fill:#d8d8d8;opacity:0.19;mix-blend-mode:multiply"/></g><path d="M40.49,68.89h0a1.56,1.56,0,0,1,.28-2.08L67.62,39.68c1.17-1.15,3.48-1.85,4.77-.47h0c1.34,1.44.26,3.79-1,4.87L42.59,68.76A1.58,1.58,0,0,1,40.49,68.89Z" transform="translate(16 9.16)" style="fill:url(#bff3f526-1167-4c79-98f5-b90f35d5f3d9)"/><path d="M91.21,34a9.49,9.49,0,1,1,.48-13.41A9.48,9.48,0,0,1,91.21,34Z" transform="translate(16 9.16)" style="fill:url(#ba6e965c-9e8d-4f07-b2c6-f2acd71abe9f)"/><path d="M89.09,31.7a6.55,6.55,0,1,1,.33-9.26A6.55,6.55,0,0,1,89.09,31.7Z" transform="translate(16 9.16)" style="fill:url(#a90cc003-569a-4a0e-8caa-587c1bd861f5)"/><path d="M85.53,24.91a1.58,1.58,0,1,1,.08-2.23A1.57,1.57,0,0,1,85.53,24.91Z" transform="translate(16 9.16)" style="fill:#fff"/></g></g></g></svg>